<?xml version="1.0" encoding="utf-8"?>
<!-- Generator: Adobe Illustrator 24.1.2, SVG Export Plug-In . SVG Version: 6.00 Build 0)  -->
<svg version="1.1" id="Слой_1" xmlns="http://www.w3.org/2000/svg" xmlns:xlink="http://www.w3.org/1999/xlink" x="0px" y="0px"
	 viewBox="0 0 300 300" style="enable-background:new 0 0 300 300;" xml:space="preserve">
<style type="text/css">
	.st0{fill:#FFFFFF;}
	.st1{fill:none;stroke:#FFFFFF;stroke-width:6;stroke-miterlimit:10;}
</style>
<g>
	<g>
		<path class="st0" d="M231.4,91.9c-3.2,28-8.3,58.2-13.4,88.5c-2.3,13.5-4.5,27.1-7.5,40.5c-3.7,16.1-12,19.6-25.9,10.7
			c-19-12.2-37.6-25-56.1-37.9c-8.7-6-9-11.4-1.3-18.9c17.2-16.8,34.6-33.2,51.8-50c2.3-2.2,7-4.8,4.1-8.4c-2.9-3.5-6.5,0.6-9.1,2.3
			c-22.6,14.8-45.2,29.5-67.4,45c-11.6,8.1-23.3,10.8-36.8,6c-8.5-3-17.3-5.5-25.9-8.3c-3.1-1.1-6.3-2.7-6.3-6.6
			c0-3.5,2.7-5.4,5.4-6.7c14.4-6.5,28.8-13,43.3-19.3c39-16.9,78-34,117.7-49.2c3.7-1.4,7.5-2.6,11.3-3.6
			C228,72.8,232.3,76.3,231.4,91.9z"/>
	</g>
	<circle class="st1" cx="150.5" cy="149.5" r="137.5"/>
</g>
</svg>
