<svg xmlns="http://www.w3.org/2000/svg" 
	 viewBox="0 0 300 300" width="48" height="48" fill="currentColor" stroke="currentColor" stroke-width="6" stroke-miterlimit="10">
<g>
	<g>
		<path fill="currentColor" d="M147.6,88.2c23.3,0,39.1,0,62.4,0c16,0,18.4,8.8,18.4,20c0,8.6-0.1,8.2,0.1,16.9c0,2.5-0.7,3.8-3.1,4.8
			c-25.1,9.9-50.1,20-75.2,29.9c-1.5,0.6-3.7,0.6-5.2,0c-25.1-9.9-50.1-20-75.2-29.9c-2.4-1-3.2-2.2-3.1-4.8
			c0.1-9.1-0.1-7.8-0.1-16.9c0-12.8,3.2-20,18.4-20C108.7,88.2,123.8,88.2,147.6,88.2z"/>
		<path fill="currentColor" d="M66.7,136.6c16.1,6.4,31.6,12.6,47,18.8c10.3,4.1,20.5,8.4,30.8,12.3c1.9,0.7,4.5,0.6,6.4-0.1
			c24.6-9.7,49-19.5,73.5-29.3c1.2-0.5,2.4-0.8,4-1.4c0,10.1,0,29.5,0,39.3c0,10.8,0,10.4,0,21.2c0,12-2.4,20-19.2,20
			c-47.9,0-77.1,0-125.1,0c-9.6,0-17.6-6.4-17.6-20.8C66.5,175.5,66.7,158.2,66.7,136.6z"/>
	</g>
	<circle fill="none" cx="150" cy="152" r="137.5"/>
</g>
</svg>
