<?xml version="1.0" encoding="utf-8"?>
<!-- Generator: Adobe Illustrator 24.1.2, SVG Export Plug-In . SVG Version: 6.00 Build 0)  -->
<svg version="1.1" id="Слой_1" xmlns="http://www.w3.org/2000/svg" xmlns:xlink="http://www.w3.org/1999/xlink" x="0px" y="0px"
	 viewBox="0 0 300 300" style="enable-background:new 0 0 300 300;" xml:space="preserve">
<style type="text/css">
	.st0{fill:#FFFFFF;}
	.st1{fill:none;stroke:#FFFFFF;stroke-width:6;stroke-miterlimit:10;}
</style>
<g>
	<g>
		<path class="st0" d="M82.9,75.6c6.9,11.6,13.7,23,20.5,34.3c3.1,5.2,6.2,10.4,9.4,15.5c1,1.6,1.3,2.9,0.2,4.6
			c-1.5,2.3-2.7,4.8-3.8,7.3c-0.4,0.9-0.4,2.3,0,3.1c12.3,19.6,28.2,35.7,47.6,48.3c1.5,1,2.6,1,4.1,0.3c2.6-1.3,5.3-2.5,8-3.6
			c0.8-0.3,2-0.4,2.6,0c17,10.3,33.9,20.7,50.8,31.1c0.1,0.1,0.2,0.3,0.5,0.5c-4.7,8.5-10.8,16-18.9,21.6c-3.4,2.4-7.3,2.2-11.2,0.7
			c-25.8-10.3-49.1-24.7-69.8-43.2c-24.6-22-44.2-47.7-57.9-77.8c-2.1-4.7-4.1-9.5-5.9-14.3c-1.8-4.7-1.2-9.2,2.3-12.9
			C67.5,84.7,74.5,79.5,82.9,75.6z"/>
		<path class="st0" d="M229.5,142.2c0.5,3.3-1.3,6-4,6.8c-2.7,0.8-5.7-0.8-6.9-3.7c-4.9-11.8-11.5-22.6-19.7-32.4
			c-11.2-13.3-24.6-23.9-40.2-31.6c-4.4-2.2-5.6-6.3-2.8-9.5c1.9-2.1,4.4-2.4,7.5-0.8c11.7,5.8,22.4,13.1,32,22
			c14.6,13.5,25.7,29.4,33.4,47.7C229.2,141.2,229.4,141.9,229.5,142.2z"/>
		<path class="st0" d="M196.3,156.3c-2.6,0.5-5-0.6-6.1-3.2c-9-19.2-22.8-33.9-41.4-44.2c-3.2-1.8-4.2-5-2.6-7.9
			c1.7-3.1,5-3.8,8.5-1.8c18.5,10.3,32.9,24.7,42.9,43.4c1.1,2,2.1,3.9,2.9,6C202,152,199.9,155.6,196.3,156.3z"/>
		<path class="st0" d="M177,181.5c3.7-1.3,6.6-2.7,9.7-3.4c4.3-1,8.3,0.2,12,2.5c8.4,5.2,16.9,10.3,25.3,15.5c5,3.1,6.1,7,3.4,12.2
			c-0.5,0.9-1,1.9-1.6,3.1C209.7,201.5,193.7,191.7,177,181.5z"/>
		<path class="st0" d="M117.3,121.1c-9.6-16.1-19-31.9-28.5-47.6c6.4-4.7,12.1-4,15.7,2.6c4.3,7.9,9,15.5,13.8,23.1
			C123.1,106.7,122.3,113.8,117.3,121.1z"/>
	</g>
	<circle class="st1" cx="149.5" cy="150.5" r="137.5"/>
</g>
</svg>
