<?xml version="1.0" encoding="utf-8"?>
<!-- Generator: Adobe Illustrator 24.1.2, SVG Export Plug-In . SVG Version: 6.00 Build 0)  -->
<svg version="1.1" id="Слой_1" xmlns="http://www.w3.org/2000/svg" xmlns:xlink="http://www.w3.org/1999/xlink" x="0px" y="0px"
	 viewBox="0 0 1600 1200" style="enable-background:new 0 0 1600 1200;" xml:space="preserve">
<style type="text/css">
	.st0{fill:#FFFFFF;}
</style>
<g>
	<path class="st0" d="M729.6,792c-6.4-1.7-12.5-4.1-17-9.4c-4.7-5.6-6.7-11.9-6.7-19.1c0-99.7,0-199.3,0-299c0-20.5,0.2-41-0.1-61.5
		c-0.2-14,9.7-26.2,22.7-27.9c0.4,0,0.7-0.4,1-0.6c20.7,0,41.3,0,62,0c0,53,0,106,0,159c0,7.6-0.1,15.2,0.1,22.8
		c0.1,1.5,1.3,3.5,2.6,4.3c26,14.6,52.2,29,78.6,43.6c3.4-7.4,6.9-14.7,10.1-22c0.4-0.9,0.1-2.3-0.3-3.4c-4.4-12.8,2-25.7,14.6-29.3
		c12.6-3.6,25.2,3.8,28.4,16.7c2.5,10.3-3.4,21.2-13.3,25.5c-2.1,0.9-4.2,2.9-5.2,5c-3.5,6.8-6.5,13.9-9.9,21.1
		c8.9,4.9,17.6,9.8,26.3,14.5c10.9,5.9,16.4,14.7,16.3,27.3c-0.2,33.2-0.1,66.3-0.1,99.5c0,19.7-5.1,26.9-23.6,33
		C854.1,792,791.8,792,729.6,792z"/>
	<path class="st0" d="M807,559c0-61.6,0-122.4,0-183.6c7.5,0.1,13.3,3.3,18.3,8.4c9.6,9.9,14.8,22.1,18.4,35.1
		c6.5,23.2,8,46.8,5.1,70.8c-2.3,18.3-6.4,35.9-16.3,51.7c-4.8,7.7-10.6,14.4-20,16.8C810.9,558.5,809.2,558.7,807,559z"/>
	<path class="st0" d="M881.1,495.5c0-5.4,4.1-8.6,8.8-6.8c10.6,4,21,8.3,31.5,12.5c11.3,4.6,22.6,9.4,33.9,14.1
		c0.6,0.3,1.3,0.5,1.9,0.8c4.4,2.1,5.9,5.7,4.2,9.6c-1.6,3.6-5.3,4.9-9.6,3.1c-10.3-4.1-20.5-8.3-30.7-12.5
		c-11.1-4.6-22.1-9.2-33.2-13.8C884.3,501.1,881,499.6,881.1,495.5z"/>
	<path class="st0" d="M886.7,446.9c-1.7-1.7-4.3-3.2-5.2-5.5c-1.4-3.2-0.3-6.5,3.3-8.1c7.5-3.3,15.1-6.5,22.7-9.7
		c14.2-5.9,28.4-11.7,42.7-17.4c1.9-0.8,4.2-1.6,6.2-1.3c3.2,0.4,5.3,2.8,5.6,6.1c0.3,3.6-1.8,5.9-4.9,7.2
		c-6.3,2.7-12.7,5.3-19.1,7.9c-15.1,6.2-30.2,12.5-45.2,18.7C891.1,445.5,889.4,446,886.7,446.9z"/>
	<path class="st0" d="M921.7,474c-10.8,0-21.7,0-32.5,0c-5.2,0-8-2.4-8.1-6.5c-0.1-4.6,2.9-7.3,8.2-7.3c21.3,0,42.6,0,63.9,0
		c3.4,0,6.9,0.7,8,4.2c0.6,2,0.3,5-0.9,6.6c-1.2,1.6-3.9,2.8-6.1,2.9C943.4,474.1,932.5,474,921.7,474
		C921.7,474,921.7,474,921.7,474z"/>
</g>
</svg>
