<?xml version="1.0" encoding="utf-8"?>
<!-- Generator: Adobe Illustrator 24.1.2, SVG Export Plug-In . SVG Version: 6.00 Build 0)  -->
<svg version="1.1" id="Слой_1" xmlns="http://www.w3.org/2000/svg" xmlns:xlink="http://www.w3.org/1999/xlink" x="0px" y="0px"
	 viewBox="0 0 1600 1200" style="enable-background:new 0 0 1600 1200;" xml:space="preserve">
<style type="text/css">
	.st0{fill:#FFFFFF;}
</style>
<g>
	<path class="st0" d="M840.4,732.7c1-4.4,1.8-8.6,2.8-12.8c2-8.2,4-16.4,6.1-24.6c3-12.2,6-24.4,9-36.7c2.6-10.8,5.2-21.7,7.8-32.5
		c1.6-6.6,3.2-13.2,5-19.7c0.3-1.1,1.7-2.3,2.8-2.7c12.3-3.9,16.6-19.6,7.6-28.9c-1.8-1.9-2-3.4-1.4-5.8c2.8-11.4,5.4-22.9,8.1-34.3
		c2-8.3,4.2-16.7,6.2-25c2.3-9.5,4.7-19,6.9-28.6c0.6-2.6,1.8-4.2,4.5-5c14.4-4.4,28.9-6.2,43.9-3.5c4.9,0.9,9.7,2.2,14.6,2.9
		c4.5,0.7,6,3.8,6.9,7.6c3.1,12.8,6.3,25.6,9.4,38.4c3.3,13.8,6.6,27.6,9.8,41.3c0.3,1.1,0.7,2.1,1,3.1c0.9,3.6,1.5,6.6-1.7,10.1
		c-8.3,9-3.5,24,8.3,27.6c1.2,0.4,2.6,1.8,3,3c2,7.6,3.8,15.2,5.6,22.9c2.1,8.6,4.4,17.1,6.4,25.7c2.8,11.5,5.5,23.1,8.3,34.6
		c3.2,13.2,6.4,26.4,9.9,39.5c0.8,3.1-0.1,3.6-2.8,3.6c-61.7,0-123.3,0-185-0.1C842.7,733,841.8,732.9,840.4,732.7z"/>
	<path class="st0" d="M623.7,659.4c-22.3,0-44.6,0-66.9,0.1c-3.2,0-4.6-0.7-4.5-4.3c0.3-6.3-0.2-12.7,0.2-19
		c0.2-3.8,1.3-7.6,2.2-11.4c1.4-5.9,2.9-11.7,4.3-17.6c0.5-2,1.5-2.9,3.6-3.7c12-4.7,16-18.5,7-28.4c-1.5-1.7-2.2-2.8-1.5-5.5
		c3.7-14.2,6.7-28.5,10.1-42.8c2.1-9,4.6-17.8,6.8-26.8c1.4-5.9,3-11.7,3.9-17.7c0.9-5.8,5.3-6.8,9.6-7.8
		c16.8-4.1,33.7-4.3,50.6-0.1c2.4,0.6,4.7,1.3,6.9,2.3c1,0.5,2,1.8,2.3,2.9c2.6,10.6,5,21.3,7.6,31.9c2.6,10.7,5.5,21.3,8.1,32
		c2.2,8.9,4.2,17.7,6.1,26.7c0.3,1.4-0.4,3.4-1.3,4.4c-8.2,8.7-6,25,7.7,29.2c1,0.3,2.2,1.5,2.5,2.5c2.3,8.9,4.9,17.8,6.4,26.9
		c1,5.8,0.4,11.9,0.4,17.9c0.1,8.5,0.1,8.4-8.5,8.4C666.1,659.4,644.9,659.4,623.7,659.4z"/>
	<path class="st0" d="M878.4,393.6c-8.9,4-17.4,4.9-26.1,1c-5.1-2.3-9.1-5.9-11.7-10.9c-4.9-9.3-4.7-15.1-0.6-17.8
		c2.3,7.3,6.1,13.3,13.8,16c9.2,3.2,21.2-3.8,22-13.6c0.4-5.2-0.2-10.7-1.3-15.8c-2.3-10.9-2.8-21.3,4-31c4.1-5.8,9.9-9.2,16.2-11.8
		c7.1-2.9,14.4-5.3,22.2-4.9c13.4,0.7,25.1,8.7,29.2,21.8c0.1,0.5,0.3,0.9,0.4,1.4c1.9,9,0.9,10.2-8.1,10.1c-4.8,0-9.8,0-14.5,0.9
		c-7.7,1.4-16.2,9.4-19.6,17.9c26.3-13.3,50.8-12.1,72.6,8c11.4,10.5,17.2,24.2,17.7,39.8c1,32.8-23.2,57.4-53.3,60.7
		c-9.3,1-18.3-0.8-27.1-4.2c-8.8-3.4-16.2-8.8-22.4-15.8c-6.2-7-10.3-15.2-12.6-24.2C876.9,412.1,876.4,403,878.4,393.6z"/>
	<path class="st0" d="M565.5,406.9c0.2-32.5,25.5-56.5,54.3-58.5c36.5-2.4,62.9,26.6,62.9,57.9c0,33.4-25.8,58.2-56.9,59.1
		C591.7,466.3,565.6,439.1,565.5,406.9z"/>
	<path class="st0" d="M565.5,759.9c0-27.6,0-55.3,0-82.9c0-4.7,0.1-4.7,4.7-4.7c14.5,0,29,0.1,43.5,0c3.4,0,4.4,1,4.4,4.4
		c-0.1,54.7,0.1,109.4-0.2,164.1c-0.1,20.8-20,32.5-37.8,24.1c-9.5-4.5-14.4-12.6-14.4-23.3C565.6,814.2,565.6,787.1,565.5,759.9
		C565.5,759.9,565.5,759.9,565.5,759.9z"/>
	<path class="st0" d="M630.6,759.3c0-27.4,0.1-54.8-0.1-82.2c0-3.8,1.1-4.8,4.7-4.7c14.1,0.2,28.3,0.1,42.4-0.1
		c3.6,0,4.8,0.8,4.8,4.6c-0.1,54.9-0.1,109.9-0.1,164.8c0,12.8-9,22.1-18.5,24.5c-12.7,3.3-25.3-2.1-30.4-13.2
		c-1.8-3.8-2.7-8.4-2.8-12.7C630.5,813.4,630.6,786.3,630.6,759.3C630.6,759.3,630.6,759.3,630.6,759.3z"/>
	<path class="st0" d="M707.5,631.5c-2-8.1-3.6-16.2-6.1-24.2c-1.2-3.8-0.3-5.8,2.4-8.5c9.6-9.5,4.5-25.2-7.7-28.2
		c-2.8-0.7-4.1-2.2-4.8-5.1c-2.7-12.1-5.9-24.2-8.8-36.3c-2.8-11.4-5.4-22.9-8.1-34.4c-1-4.2-2-8.4-3.2-13c1.3-0.1,2.4-0.2,3.4-0.2
		c11.3,0,22.7,0.3,34-0.1c7.6-0.3,17.2,7,17.3,15.8c0.1,5.7,0.5,11.5,0.1,17.2c-0.3,4.5,1.6,7.5,4.6,10.5
		c9.2,9.1,18.3,18.3,27.3,27.7c7.3,7.7,6.8,20-1.5,26.5c-3.7,2.9-8.6,4.3-13,6.1c-4.5,1.8-9.1,3.2-13.7,4.7
		c-2.6,0.8-3.6,2.3-3.6,5.1c0.1,7.2-0.2,14.4-0.2,21.5C725.9,624.2,716.4,632.9,707.5,631.5z"/>
	<path class="st0" d="M983.4,481.6c1.7,0,3,0,4.3,0c10.7,0,21.5,0.4,32.2-0.1c8.9-0.4,18.2,7,18.2,18.1c0,5.7-0.2,11.5,0.1,17.2
		c0.1,1.8,0.9,4,2.2,5.4c9.4,9.8,18.9,19.6,28.5,29.2c10.2,10.1,7.2,26-6.1,31.2c-6.3,2.4-12.7,4.6-19.2,6.7
		c-5.2,1.7-5.4,1.9-5.5,7.3c-0.2,7.4-0.1,14.9-0.8,22.2c-0.7,6.7-8.1,12.7-14.7,13c-2,0.1-3.1-0.5-3.5-2.6
		c-1.8-7.9-3.7-15.8-5.7-23.7c-0.6-2.4-0.2-4,1.7-5.8c11.8-11.4,3.5-27.3-7.5-29.2c-3-0.5-3.7-2.9-4.2-5.2
		c-3.4-14.2-6.6-28.3-10-42.5c-3-12.4-6.1-24.7-9.1-37.1C983.9,484.5,983.7,483.3,983.4,481.6z"/>
	<path class="st0" d="M577,481.6c-1.6,6.8-3,13.1-4.5,19.3c-3.1,12.7-6.1,25.4-9.2,38.1c-2.2,9.1-4.6,18.1-6.6,27.2
		c-0.5,2.4-1.8,3.4-3.9,4.1c-9.1,2.9-13.1,8.7-12.9,18.2c0.1,4.7,2.2,8.5,5.7,11.4c1.9,1.6,2.2,3.3,1.7,5.5
		c-1.9,7.7-3.8,15.3-5.5,23c-0.6,2.9-1.8,3.4-4.3,2.1c-6.5-3.4-10.6-8.3-10.6-16c0-6.1-0.2-12.2,0-18.3c0.1-3.2-1.5-4.1-4-5
		c-8.7-2.9-17.4-5.8-26-9.1c-12.2-4.7-15.8-19.7-6.8-29.3c11.1-11.8,22.5-23.2,33.9-34.7c1.9-2,2.9-4,2.8-6.7
		c-0.2-4.5-0.1-9,0.1-13.5c0.3-8.8,8-16.3,16.8-16.3C554.4,481.6,565.3,481.6,577,481.6z"/>
	<path class="st0" d="M888.6,481.7c-1.1,5.2-1.9,9.8-3,14.4c-2.3,9.7-4.7,19.3-7.1,29c-2.8,11-5.6,22-8.4,33
		c-0.3,1.2-0.3,2.4-0.5,3.6c-1,4.7-2.5,8-8.1,10c-11,4.1-13.7,19-5.2,27.1c2.8,2.7,3.1,5.1,2.3,8.2c-2,7.9-4.1,15.9-6.1,23.8
		c-5.9-0.1-11.7-4.8-13-11.7c-1.1-5.7-0.9-11.6-1-17.4c-0.1-8.7,0-8.7-8.2-11.7c-7.1-2.6-14.3-5-21.5-7.7
		c-12.3-4.6-15.9-20.1-6.7-29.6c11-11.5,22.2-22.8,33.5-34.1c2.1-2.1,2.9-4.1,2.9-7c0-5.6,0-11.2,0.8-16.7
		c1.3-7.9,9.5-13.4,16.8-13.3C866.7,481.9,877.3,481.7,888.6,481.7z"/>
	<path class="st0" d="M994.4,795.7c0,16.2,0.6,32.4-0.2,48.6c-0.7,15.5-16.4,25.9-31.5,22.5c-11.8-2.7-20.3-13.4-20.3-25.9
		c0-30.2,0.1-60.4-0.1-90.6c0-3.6,1.1-4.6,4.6-4.5c14.5,0.1,29,0.1,43.5,0c3.4,0,4.4,1,4.4,4.4c-0.2,15.2-0.1,30.4-0.1,45.7
		C994.6,795.7,994.5,795.7,994.4,795.7z"/>
	<path class="st0" d="M929.6,795.8c0,15,0.2,30-0.1,44.9c-0.2,11.2-5.3,19.8-15.8,24.4c-15.2,6.7-33.1-3.1-35.3-18.4
		c-0.5-3.3-0.9-6.7-0.9-10.1c-0.1-29,0-58-0.1-86.9c0-3,0.9-3.7,3.8-3.7c14.6,0.1,29.2,0.1,43.8-0.1c3.4,0,4.9,0.7,4.8,4.6
		C929.5,765.6,929.7,780.7,929.6,795.8C929.7,795.8,929.7,795.8,929.6,795.8z"/>
</g>
</svg>
