<?xml version="1.0" encoding="utf-8"?>
<!-- Generator: Adobe Illustrator 24.1.2, SVG Export Plug-In . SVG Version: 6.00 Build 0)  -->
<svg version="1.1" id="Слой_1" xmlns="http://www.w3.org/2000/svg" xmlns:xlink="http://www.w3.org/1999/xlink" x="0px" y="0px"
	 viewBox="0 0 60 60" style="enable-background:new 0 0 60 60;" xml:space="preserve">
<style type="text/css">
	.st0{fill:currentColor;}
</style>
<g>
	<path class="st0" d="M30.2,58C14.5,57.9,2.1,45.2,2.4,29.6c0.3-15.2,12.8-27.3,28-27.2C45.8,2.5,58.2,15.2,58,30.5
		C57.8,45.8,45.4,58,30.2,58z M30.4,52c0.7,0,1.4-0.1,2.1-0.1c2.6-0.3,5.1-1.1,7.5-2.3c2.7-1.4,5.1-3.3,7-5.7c3-3.7,4.7-7.8,5-12.5
		c0.1-2.1-0.2-4.1-0.7-6.1c-0.9-3.7-2.7-7-5.3-9.8c-2-2.1-4.3-3.8-6.9-5c-2.2-1-4.4-1.7-6.8-1.8c-1.1-0.1-2.2,0-3.3,0
		c-1.8,0-3.6,0.3-5.3,0.9c-4,1.3-7.2,3.7-9.9,6.8c-2.1,2.5-3.6,5.2-4.5,8.3c-0.8,2.6-1,5.2-0.8,7.8c0.3,2.7,1.2,5.2,2.4,7.6
		c1.1,2.1,2.5,4,4.3,5.7c2.6,2.5,5.6,4.2,9,5.3C26.2,51.6,28.3,52,30.4,52z"/>
	<path class="st0" d="M43.3,18.6c-0.4,0.8-0.7,1.5-1.1,2.2c-2.4,4.8-4.8,9.5-7.2,14.3c-0.1,0.1-0.2,0.3-0.3,0.3c-4,2-8,4-12,6
		c-1.3,0.7-2.7,1.3-4,2c-0.1,0.1-0.2,0.1-0.4,0.2c0.2-0.4,0.3-0.7,0.5-1c1.8-3.7,3.7-7.4,5.5-11c0.7-1.4,1.4-2.9,2.2-4.3
		c0.1-0.2,0.3-0.3,0.4-0.4c4.1-2,8.1-4.1,12.2-6.1c1.3-0.7,2.7-1.3,4-2C43.2,18.7,43.2,18.7,43.3,18.6z M21.6,40.4
		c3.6-1.8,7.1-3.5,10.5-5.3c-1.8-1.8-3.5-3.5-5.3-5.3C25.1,33.3,23.4,36.8,21.6,40.4z"/>
</g>
</svg>
