<?xml version="1.0" encoding="utf-8"?>
<!-- Generator: Adobe Illustrator 24.1.2, SVG Export Plug-In . SVG Version: 6.00 Build 0)  -->
<svg version="1.1" id="Слой_1" xmlns="http://www.w3.org/2000/svg" xmlns:xlink="http://www.w3.org/1999/xlink" x="0px" y="0px"
	 viewBox="0 0 60 60" style="enable-background:new 0 0 60 60;" xml:space="preserve">
<style type="text/css">
	.st0{fill:currentColor;}
</style>
<g>
	<path class="st0" d="M32.8,17.5c-0.3-1.6-0.6-3-0.9-4.5c-0.1,0-0.2,0-0.3,0c-0.2,0.5-0.4,1.1-0.5,1.6c-0.1,0.5-0.1,1-0.2,1.5
		c-0.2,0.7-0.6,1-1.3,0.9c-1.8-0.4-3.2,0.3-4.4,1.5c-1.7,1.8-3.5,3.6-5.2,5.3c-0.7,0.7-1.2,1.5-1.4,2.6c-0.1,0.3-0.2,0.7-0.5,1
		c-4.4,4.4-8.9,8.9-13.3,13.3c-0.1,0.1-0.1,0.1-0.2,0.2c-1.1-0.6-2.4-0.2-2.6,1c-0.1,0.7-0.1,1.7,0.4,2.3c0.5,0.6,1.2,1.2,1.8,1.8
		c0.3,0.3,0.6,0.3,0.8,0c0.2-0.2,0.4-0.3,0.5-0.5c4.9-4.9,9.8-9.8,14.7-14.7c0.2-0.2,0.4-0.7,0.8-0.1c-4.1,4.1-8.3,8.3-12.4,12.4
		c0.4,0.4,0.8,0.8,1.3,1.3c0.2-0.2,0.4-0.4,0.5-0.5c3.8-3.8,7.5-7.6,11.3-11.4c0.3-0.3,0.5-0.6,1-0.3c0.2,0.1,0.5,0,0.8-0.1
		c0.8-0.3,1.5-0.2,2.3,0.2c0.6,0.3,1.2,0.3,1.9,0c1-0.4,2-0.8,3-1.3c0.5-0.2,0.8-0.1,1.1,0.3c1.6,1.8,3.7,2.2,5.9,1
		c2-1.1,2.8-3.1,2.1-5.3c-0.3-0.9-0.2-1.2,0.6-1.6c1.1-0.5,2.3-0.5,3.4-0.1c2.5,0.8,4.3,2.4,5.8,4.5c0.8,1.2,0.8,1.2,1.7,0.2
		c2-2,4-4,6-6c0.4-0.4,0.5-0.7,0-1.1c-3.6-2.6-7.5-4.6-11.9-5.2c-3.2-0.5-6.2,0-9,1.3c-0.2,0.1-0.6,0.1-0.7,0
		C35.1,17.7,34.1,17.1,32.8,17.5z M37.2,30.1c0.1,0,0.2-0.1,0.4-0.1c-0.1-0.4-0.2-0.9-0.4-1.3c-0.2-0.6-0.5-1.2-0.6-1.8
		c-0.1-0.3,0.1-0.9,0.3-1c0.2-0.1,0.8,0,1.1,0.2c1,0.6,1.4,1.8,1.1,2.9c-0.5,1.8-2.7,3.1-4.6,2.7c-0.7-0.2-1.3-0.5-1.8-1.2
		c-0.5-0.7-0.6-1.8-0.2-2.4c0.5-0.8,1.3-0.7,2.1-0.6c1,0.2,1.5,0.9,2,1.6C36.8,29.4,37,29.8,37.2,30.1z M27.8,25.1
		c-0.6,0.6-1.1,1.1-1.7,1.7c-0.4,0.4-0.7,0.6-1.2,0.1c-0.5-0.4-0.3-0.8,0.1-1.2c1.2-1.2,2.3-2.3,3.5-3.5c0.4-0.4,0.8-0.5,1.2-0.1
		c0.4,0.4,0.2,0.8-0.1,1.2C29,23.9,28.4,24.5,27.8,25.1z M28.6,25.9L28.6,25.9c0.6-0.6,1.2-1.2,1.8-1.8c0.4-0.4,0.7-0.6,1.2-0.1
		c0.4,0.4,0.2,0.8-0.1,1.1c-1.2,1.2-2.4,2.4-3.6,3.6c-0.3,0.3-0.7,0.5-1.1,0.1c-0.4-0.4-0.3-0.8,0-1.2C27.4,27.1,28,26.5,28.6,25.9z
		 M26,23.1c-0.6,0.6-1.2,1.2-1.8,1.8c-0.3,0.3-0.7,0.5-1.1,0.1c-0.4-0.4-0.2-0.8,0.1-1.1c1.2-1.2,2.4-2.4,3.6-3.6
		c0.3-0.3,0.7-0.5,1.1-0.1c0.4,0.4,0.3,0.7,0,1.1C27.1,22,26.6,22.5,26,23.1z"/>
</g>
</svg>
