<?xml version="1.0" encoding="utf-8"?>
<!-- Generator: Adobe Illustrator 24.1.2, SVG Export Plug-In . SVG Version: 6.00 Build 0)  -->
<svg version="1.1" id="Слой_1" xmlns="http://www.w3.org/2000/svg" xmlns:xlink="http://www.w3.org/1999/xlink" x="0px" y="0px"
	 viewBox="0 0 60 60" style="enable-background:new 0 0 60 60;" xml:space="preserve">
<style type="text/css">
	.st0{fill:currentColor;}
</style>
<g>
	<path class="st0" d="M29.9,2.7c15.2,0.1,26.8,12.5,26.7,27c-0.1,14.6-12.1,26.5-26.8,26.5c-14.5,0-26.5-11.8-26.6-26.6
		C3.1,14.9,14.9,2.7,29.9,2.7z M30,7.7c-5.1,0-9.7,1.6-13.7,4.7c-1.3,1-2.4,2.2-2.9,3.9c-0.4,1.2-1.2,2.2-2.1,3
		c-0.5,0.4-1,0.9-1.5,1.3c-0.5,0.5-0.9,1.1-1.1,1.8c-0.5,1.9,0.7,3.2,2.6,2.9c0.3-0.1,0.6-0.2,1-0.2c0.3,0,0.5-0.1,0.8-0.1
		c0.4,0,0.6,0.2,0.5,0.6c0,0.3,0,0.5-0.1,0.8c-0.2,1.1-0.4,2.2-0.5,3.3c-0.1,0.7-0.4,1.3-0.9,1.8c-0.6,0.5-1.2,1-1.8,1.4
		c-0.7,0.6-1,1.3-1,2.1c0,1.1,0.2,2.1,0.7,3.1c2,4.4,5.1,7.9,9.3,10.3c0.7,0.4,1.6,0.8,2.4,1c1.4,0.3,2.6-0.3,3.1-1.6
		c0.3-0.7,0.5-1.6,0.7-2.4c0.2-0.9,0.3-1,1.1-1c2.1,0,4.3,0,6.4,0c1,0,1.1,0.1,1.3,1.1c0.2,0.8,0.4,1.7,0.7,2.4
		c0.5,1.2,1.7,1.8,3,1.5c0.7-0.2,1.5-0.4,2.1-0.8c4.6-2.5,7.9-6.1,9.9-10.9c0.3-0.8,0.4-1.7,0.5-2.6c0.1-0.8-0.3-1.6-1-2.1
		c-0.5-0.4-1-0.8-1.5-1.3c-0.7-0.6-1.2-1.3-1.1-2.2c0-0.2,0-0.4-0.1-0.6c-0.2-0.9-0.4-1.9-0.5-2.8c-0.1-0.8,0.2-1.1,1-0.9
		c0.2,0,0.5,0.1,0.7,0.2c0.4,0.1,0.9,0.2,1.3,0.2c1,0,1.6-0.5,1.9-1.5c0.2-0.8,0.1-1.7-0.4-2.4c-0.4-0.6-0.9-1.1-1.5-1.5
		c-1.5-1.1-2.5-2.5-3.1-4.2c-0.1-0.4-0.3-0.7-0.5-1c-0.3-0.4-0.5-0.8-0.9-1.2C40.6,9.8,35.6,7.8,30,7.7z"/>
	<path class="st0" d="M14.3,30.4c0-0.4,0.1-0.9,0.1-1.3c0.2-1.1,0.4-2.2,0.6-3.3c0.3-1.3,1-2.1,2.3-2.5c5.2-1.8,10.4-2.3,15.9-1.9
		c3.3,0.3,6.4,0.9,9.5,2c0.9,0.3,1.5,0.9,1.8,1.8c0.6,1.7,0.7,3.5,1,5.3C38.8,32,34.9,36.2,33.7,43c-2.5,0-5.1,0-7.7,0
		C24.9,36.2,21,32.1,14.3,30.4z M26.2,29.4c0,2,1.7,3.7,3.7,3.7c2.1,0,3.7-1.7,3.7-3.7c0-2-1.6-3.7-3.7-3.7
		C27.8,25.7,26.2,27.3,26.2,29.4z"/>
	<path class="st0" d="M29.9,25.7"/>
	<path class="st0" d="M29.9,33.1"/>
</g>
</svg>
