<?xml version="1.0" encoding="utf-8"?>
<!-- Generator: Adobe Illustrator 24.1.2, SVG Export Plug-In . SVG Version: 6.00 Build 0)  -->
<svg version="1.1" id="Слой_1" xmlns="http://www.w3.org/2000/svg" xmlns:xlink="http://www.w3.org/1999/xlink" x="0px" y="0px"
	 viewBox="0 0 60 60" style="enable-background:new 0 0 60 60;" xml:space="preserve">
<style type="text/css">
	.st0{fill:#FFFFFF;}
</style>
<g>
	<g>
		<path class="st0" d="M21.2,42.8c0.2-0.6,0.5-1.2,0.7-1.8c0.8-1.8,1.3-3.8,1.6-5.7c0.2-1.7,0.4-3.4,0.5-5.2
			c0.1-2.4,0.2-4.7,0.2-7.1c0-0.4,0-0.8,0-1.3c3.9,0,7.7,0,11.5,0c0,0.5,0,1,0,1.5c0,1.9,0,3.8,0.1,5.6c0.1,1.7,0.2,3.3,0.4,5
			c0.2,1.6,0.4,3.3,0.9,4.9c0.4,1.1,0.8,2.3,1.2,3.4c0.1,0.2,0.2,0.5,0.3,0.8C32.9,42.8,27.1,42.8,21.2,42.8z"/>
		<path class="st0" d="M35.7,9.7c1.1,0,2.2,0,3.4,0c0,0.1,0,0.2,0,0.3c0,2.2,0,4.5,0,6.7c0,1.3-0.8,2.1-2.1,2.1c-4.7,0-9.4,0-14.1,0
			c-1.2,0-2-0.8-2-2c0-2.3,0-4.6,0-6.8c0-0.1,0-0.2,0-0.2c1.1,0,2.2,0,3.4,0c0,0.9,0,1.9,0,2.8c1,0,1.9,0,2.9,0c0-0.9,0-1.9,0-2.8
			c1.9,0,3.8,0,5.7,0c0,0.9,0,1.9,0,2.8c1,0,1.9,0,2.9,0C35.7,11.7,35.7,10.7,35.7,9.7z"/>
		<path class="st0" d="M30,45.7c3.7,0,7.3,0,11,0c0.9,0,1.7,0.7,1.9,1.6c0.2,0.9-0.4,1.8-1.2,2.1c-0.2,0.1-0.5,0.1-0.7,0.1
			c-7.3,0-14.6,0-21.9,0c-0.9,0-1.7-0.5-1.9-1.4c-0.4-1.2,0.5-2.4,1.8-2.5c1.9,0,3.9,0,5.9,0C26.5,45.6,28.3,45.6,30,45.7L30,45.7z"
			/>
		<path class="st0" d="M30,43.3c3.2,0,6.3,0,9.5,0c0.8,0,1.2,0.7,0.9,1.4c-0.2,0.3-0.5,0.5-0.8,0.5c0,0-0.1,0-0.2,0
			c-6.3,0-12.6,0-18.9,0c-0.8,0-1.2-0.6-1-1.3c0.1-0.4,0.5-0.6,0.9-0.6c2.2,0,4.5,0,6.7,0C28.1,43.3,29.1,43.3,30,43.3L30,43.3z"/>
		<path class="st0" d="M30,19.3c2.4,0,4.8,0,7.1,0c0.5,0,0.9,0.3,1,0.7c0.1,0.4-0.1,0.9-0.5,1.1c-0.2,0.1-0.3,0.1-0.5,0.1
			c-4.8,0-9.5,0-14.3,0c-0.6,0-1-0.4-1-1c0-0.5,0.4-1,1-1C25.2,19.3,27.6,19.3,30,19.3z"/>
	</g>
	<g>
		<path class="st0" d="M5.1,38.3c0.2-0.5,0.3-0.9,0.5-1.3c0.6-1.4,1-2.8,1.1-4.3c0.2-1.3,0.3-2.6,0.4-3.8c0.1-1.8,0.1-3.5,0.2-5.3
			c0-0.3,0-0.6,0-0.9c2.9,0,5.7,0,8.6,0c0,0.4,0,0.7,0,1.1c0,1.4,0,2.8,0.1,4.2c0.1,1.2,0.2,2.5,0.3,3.7c0.1,1.2,0.3,2.4,0.7,3.6
			c0.3,0.8,0.6,1.7,0.9,2.5c0.1,0.2,0.1,0.4,0.2,0.6C13.8,38.3,9.5,38.3,5.1,38.3z"/>
		<path class="st0" d="M15.9,13.7c0.8,0,1.7,0,2.5,0c0,0.1,0,0.1,0,0.2c0,1.7,0,3.3,0,5c0,0.9-0.6,1.5-1.5,1.5c-3.5,0-7,0-10.5,0
			c-0.9,0-1.5-0.6-1.5-1.5c0-1.7,0-3.4,0-5.1c0-0.1,0-0.1,0-0.2c0.8,0,1.7,0,2.5,0c0,0.7,0,1.4,0,2.1c0.7,0,1.4,0,2.1,0
			c0-0.7,0-1.4,0-2.1c1.4,0,2.8,0,4.3,0c0,0.7,0,1.4,0,2.1c0.7,0,1.4,0,2.1,0C15.9,15.1,15.9,14.4,15.9,13.7z"/>
		<path class="st0" d="M11.6,40.4c2.7,0,5.4,0,8.2,0c0.7,0,1.3,0.5,1.4,1.2c0.1,0.7-0.3,1.4-0.9,1.6c-0.2,0.1-0.3,0.1-0.5,0.1
			c-5.4,0-10.8,0-16.3,0c-0.7,0-1.2-0.4-1.4-1c-0.3-0.9,0.4-1.8,1.3-1.8c1.5,0,2.9,0,4.4,0C9,40.4,10.3,40.4,11.6,40.4L11.6,40.4z"
			/>
		<path class="st0" d="M11.6,38.6c2.4,0,4.7,0,7.1,0c0.6,0,0.9,0.5,0.7,1.1c-0.1,0.2-0.3,0.4-0.6,0.4c0,0-0.1,0-0.1,0
			c-4.7,0-9.4,0-14.1,0c-0.6,0-0.9-0.5-0.7-1c0.1-0.3,0.4-0.5,0.7-0.5c1.7,0,3.3,0,5,0C10.2,38.6,10.9,38.6,11.6,38.6L11.6,38.6z"/>
		<path class="st0" d="M11.6,20.8c1.8,0,3.5,0,5.3,0c0.3,0,0.6,0.2,0.7,0.5c0.1,0.3-0.1,0.7-0.4,0.8c-0.1,0.1-0.3,0.1-0.4,0.1
			c-3.5,0-7.1,0-10.6,0c-0.4,0-0.7-0.3-0.7-0.7c0-0.4,0.3-0.7,0.7-0.7C8.1,20.8,9.9,20.8,11.6,20.8z"/>
	</g>
	<g>
		<path class="st0" d="M41.9,38.3c0.2-0.5,0.3-0.9,0.5-1.3c0.6-1.4,1-2.8,1.1-4.3c0.2-1.3,0.3-2.6,0.4-3.8c0.1-1.8,0.1-3.5,0.2-5.3
			c0-0.3,0-0.6,0-0.9c2.9,0,5.7,0,8.6,0c0,0.4,0,0.7,0,1.1c0,1.4,0,2.8,0.1,4.2c0.1,1.2,0.2,2.5,0.3,3.7c0.1,1.2,0.3,2.4,0.7,3.6
			c0.3,0.8,0.6,1.7,0.9,2.5c0.1,0.2,0.1,0.4,0.2,0.6C50.5,38.3,46.2,38.3,41.9,38.3z"/>
		<path class="st0" d="M52.6,13.7c0.8,0,1.7,0,2.5,0c0,0.1,0,0.1,0,0.2c0,1.7,0,3.3,0,5c0,0.9-0.6,1.5-1.5,1.5c-3.5,0-7,0-10.5,0
			c-0.9,0-1.5-0.6-1.5-1.5c0-1.7,0-3.4,0-5.1c0-0.1,0-0.1,0-0.2c0.8,0,1.7,0,2.5,0c0,0.7,0,1.4,0,2.1c0.7,0,1.4,0,2.1,0
			c0-0.7,0-1.4,0-2.1c1.4,0,2.8,0,4.3,0c0,0.7,0,1.4,0,2.1c0.7,0,1.4,0,2.1,0C52.6,15.1,52.6,14.4,52.6,13.7z"/>
		<path class="st0" d="M48.4,40.4c2.7,0,5.4,0,8.2,0c0.7,0,1.3,0.5,1.4,1.2c0.1,0.7-0.3,1.4-0.9,1.6c-0.2,0.1-0.3,0.1-0.5,0.1
			c-5.4,0-10.8,0-16.3,0c-0.7,0-1.2-0.4-1.4-1c-0.3-0.9,0.4-1.8,1.3-1.8c1.5,0,2.9,0,4.4,0C45.8,40.4,47.1,40.4,48.4,40.4L48.4,40.4
			z"/>
		<path class="st0" d="M48.4,38.6c2.4,0,4.7,0,7.1,0c0.6,0,0.9,0.5,0.7,1.1c-0.1,0.2-0.3,0.4-0.6,0.4c0,0-0.1,0-0.1,0
			c-4.7,0-9.4,0-14.1,0c-0.6,0-0.9-0.5-0.7-1c0.1-0.3,0.4-0.5,0.7-0.5c1.7,0,3.3,0,5,0C47,38.6,47.7,38.6,48.4,38.6L48.4,38.6z"/>
		<path class="st0" d="M48.4,20.8c1.8,0,3.5,0,5.3,0c0.3,0,0.6,0.2,0.7,0.5c0.1,0.3-0.1,0.7-0.4,0.8c-0.1,0.1-0.3,0.1-0.4,0.1
			c-3.5,0-7.1,0-10.6,0c-0.4,0-0.7-0.3-0.7-0.7c0-0.4,0.3-0.7,0.7-0.7C44.8,20.8,46.6,20.8,48.4,20.8z"/>
	</g>
</g>
</svg>
