<?xml version="1.0" encoding="utf-8"?>
<!-- Generator: Adobe Illustrator 24.1.2, SVG Export Plug-In . SVG Version: 6.00 Build 0)  -->
<svg version="1.1" id="Слой_1" xmlns="http://www.w3.org/2000/svg" xmlns:xlink="http://www.w3.org/1999/xlink" x="0px" y="0px"
	 viewBox="0 0 1600 1200" style="enable-background:new 0 0 1600 1200;" xml:space="preserve">
<style type="text/css">
	.st0{fill:#FFFFFF;}
</style>
<g>
	<path class="st0" d="M1073,529.4c-3.9,13.1-7.2,26.4-11.9,39.2c-11.6,31.2-28,59.9-47.2,86.9c-21.1,29.7-51.4,41.1-86.4,43.4
		c-20.3,1.4-37.3-7.4-53.3-17.3c-15.7-9.8-29.6-22.5-44.5-33.7c-9.2-6.9-18.7-13.3-28.3-19.7c-6.2-4.1-12.5-3.5-19-0.1
		c-14.4,7.6-26.7,17.9-38.5,28.9c-18.3,17.1-39.5,29.4-62.7,38.5c-14,5.5-28.5,3.6-42.8,1.3c-33.6-5.4-58.1-23.6-76-52.2
		c-21.4-34.2-40.6-69.3-49.7-109.2c-3.9-17-0.9-25.8,14.2-34.5c30.6-17.7,63-30.9,98.2-36c27.3-3.9,54.4-1.5,81.2,4.6
		c23.1,5.3,46.3,10.7,69.3,16.6c11.1,2.8,21.9,2.8,33,0c25.7-6.4,51.5-12.6,77.3-18.2c54.3-11.7,105.2-1.3,153.9,23.6
		c5.5,2.8,11,5.7,16.4,8.8c7.9,4.4,14.3,10.1,16.9,19.2C1073,522.8,1073,526.1,1073,529.4z M597.8,553.4
		c27.3,55.2,74.6,70.7,129,43.8C698,539.4,649.7,527.8,597.8,553.4z M986,553.4c-52.2-25.6-100.5-13.7-129,43.8
		C911.3,624.1,958.8,608.5,986,553.4z"/>
</g>
</svg>
