<?xml version="1.0" encoding="utf-8"?>
<!-- Generator: Adobe Illustrator 24.1.2, SVG Export Plug-In . SVG Version: 6.00 Build 0)  -->
<svg version="1.1" id="Слой_1" xmlns="http://www.w3.org/2000/svg" xmlns:xlink="http://www.w3.org/1999/xlink" x="0px" y="0px"
	 viewBox="0 0 60 60" style="enable-background:new 0 0 60 60;" xml:space="preserve">
<style type="text/css">
	.st0{fill:#FFFFFF;}
</style>
<g>
	<path class="st0" d="M32.6,33.2c7.1,0,14.1,0,21.2,0c2.4,0,3.6,1.3,4.1,3.2c0.5,2-0.2,4.1-2.2,5.2c-2.1,1.2-4.3,2.4-6.4,3.6
		c-0.2,0.1-0.5,0.2-0.8,0.2c-3.4,0-6.8,0-10.2,0c-2.8,0-5.5,0-8.3,0c-2.7,0-5.5,0-8.2,0c-1.6,0-3.3,0-4.9,0c-0.3,0-0.7,0-0.9-0.2
		c-2.4-1.3-4.7-2.7-7-4.1c-1.5-0.9-2-2.4-1.8-4.1c0.2-1.8,1-3.2,2.8-3.8c0.4-0.1,0.9-0.2,1.4-0.2C18.4,33.2,25.5,33.2,32.6,33.2z"/>
	<path class="st0" d="M12.7,25.7c0-0.5,0-1,0-1.5c0-1,0.3-1.3,1.3-1.3c3.1,0,6.2,0,9.3,0c4.4,0,8.9,0,13.3,0c5.1,0,10.3,0,15.4,0
		c0.9,0,1.3,0.3,1.3,1.3c0,0.5,0,1,0,1.5c0.6,0,1.1,0,1.6,0c0.8,0,1.2,0.4,1.2,1.2c0,1.1,0,2.3,0,3.4c0,0.7-0.3,1-1,1.1
		c-0.2,0-0.4,0-0.6,0c-15,0-30.1,0-45.1,0c-0.7,0-1.2,0.2-1.7,0.7c-0.5,0.6-1.1,1.1-1.7,1.7c-0.6,0.6-1.1,0.6-1.7,0
		c-0.9-0.8-1.7-1.7-2.5-2.5c-0.5-0.5-0.5-1,0-1.6C3,28.4,4.2,27.2,5.4,26c0.2-0.2,0.7-0.4,1.1-0.4C8.5,25.6,10.6,25.7,12.7,25.7z"/>
	<path class="st0" d="M18.4,19.1c-3.2,0-6.3,0-9.4,0C8.7,19.9,8.5,20,7.6,20c-1.6,0-3.3,0-4.9,0c-1,0-1.3-0.3-1.3-1.3
		c0-0.5,0-1,0-1.4c0-0.7,0.4-1,1.1-1c1.8,0,3.5,0,5.3,0c0.7,0,1,0.2,1.2,0.9c3.1,0,6.2,0,9.4,0c0-0.3,0-0.5,0-0.8
		c0-0.7,0.4-1.1,1.1-1.1c0.1,0,0.1,0,0.2,0c1.9,0.1,3.8-0.3,5.7-0.6c1-0.2,2.1-0.2,3.2-0.3c0.4,0,0.8,0,1.2,0c0-0.3,0-0.6,0-0.9
		c0-0.6,0.4-1,1-1c2.5,0,5,0,7.5,0c0.6,0,0.9,0.3,1,1c0,0.3,0,0.6,0,1c1.4-0.4,1.8,0.4,2.3,1.4c0.4,0.9,0.9,1.8,1.3,2.8
		c0.1,0.2,0.2,0.5,0.2,0.8c0.1,1.1-0.3,1.5-1.4,1.5c-6.4,0-12.8,0-19.2,0c-0.9,0-1.7,0-2.5,0c-1.1,0-1.3-0.2-1.3-1.4
		C18.4,19.4,18.4,19.3,18.4,19.1z"/>
</g>
</svg>
