<?xml version="1.0" encoding="utf-8"?>
<!-- Generator: Adobe Illustrator 24.1.2, SVG Export Plug-In . SVG Version: 6.00 Build 0)  -->
<svg version="1.1" id="Слой_1" xmlns="http://www.w3.org/2000/svg" xmlns:xlink="http://www.w3.org/1999/xlink" x="0px" y="0px"
	 viewBox="0 0 60 60" style="enable-background:new 0 0 60 60;" xml:space="preserve">
<style type="text/css">
	.st0{fill:currentColor;}
</style>
<g>
	<path class="st0" d="M27.2,30c0-3.8,0-7.5,0-11.3c0-1.2,0.9-2.2,2.1-2.4c1.1-0.2,2.2,0.5,2.5,1.6c0.1,0.4,0.1,0.8,0.1,1.2
		c0,4.3,0,8.5,0,12.8c0,0.1,0,0.3,0,0.4c0,0.5,0,1,0.6,1c0.6,0,0.6-0.4,0.7-0.9c0.1-1.3,1.2-2.2,2.5-2.2c1.3,0,2.3,1,2.4,2.3
		c0,0.3,0.3,0.6,0.5,0.8c0.1,0.1,0.5-0.1,0.7-0.3c0.1-0.1,0.1-0.4,0.2-0.6c0.2-1.2,1.1-2.1,2.4-2.1c1.3,0,2.4,0.9,2.5,2.2
		c0,0.1,0,0.1,0,0.2c0,0.4,0.2,0.8,0.7,0.8c0.5,0,0.6-0.3,0.7-0.8c0.1-1.5,1.4-2.5,2.9-2.3c1.1,0.2,1.9,1,2,2.2
		C51.2,37,51,41.6,49.6,46c-1.1,3.5-2.8,6.6-5.9,8.8c-3.9,2.7-8.2,3.7-12.7,1.8c-3.3-1.3-5.6-3.8-7.5-6.7c-1.3-2-2.1-4.3-2.9-6.6
		c-0.9-2.4-1.8-4.9-2.7-7.3c-0.6-1.7,0.6-3.4,2.4-3.3c1,0.1,1.6,0.6,2,1.5c1.2,2.4,2.3,4.8,3.5,7.3c0.1,0.2,0.1,0.4,0.3,0.5
		c0.2,0.2,0.5,0.3,0.7,0.3c0.2,0,0.4-0.3,0.5-0.6c0.1-0.2,0-0.4,0-0.6C27.2,37.4,27.2,33.7,27.2,30C27.2,30,27.2,30,27.2,30z"/>
	<path class="st0" d="M25.9,24.8c-4.2-0.7-7.9-6.4-7.5-11.3c0.5-5.8,5.2-10.2,11-10.2c5.9-0.1,10.6,4.2,11.3,10.1
		c0.5,4.9-3.1,10.6-7.4,11.4c0-1.1,0-2.2,0-3.3c0-0.2,0.3-0.4,0.4-0.5c3.6-2.3,4.7-7,2.5-10.6c-1.7-2.7-4.9-4.2-7.9-3.7
		c-3.3,0.6-5.8,3-6.5,6.1c-0.6,3.2,0.7,6.4,3.4,8.1c0.4,0.3,0.6,0.5,0.5,1C25.9,22.9,25.9,23.8,25.9,24.8z"/>
	<path class="st0" d="M33.3,19.6c-0.2-3.1-1.4-4.6-3.6-4.6c-1.2,0-2.2,0.4-3,1.4c-0.8,0.9-0.9,2.1-0.8,3.2c-1.8-0.7-3.1-3.7-2.7-6.2
		c0.4-2.9,2.9-5.2,6-5.5c2.9-0.3,5.7,1.6,6.6,4.4C36.7,15,35.6,18.3,33.3,19.6z"/>
	<path class="st0" d="M10.6,6.1c1,0,1.6,0.8,1.2,1.6c-0.1,0.2-0.2,0.3-0.3,0.4c-3.3,3.6-3.3,8.5,0,12.1c0.7,0.8,0.5,1.8-0.4,2
		c-0.4,0.1-0.9-0.1-1.1-0.4c-2.2-2.2-3.2-4.9-3.1-7.9c0.1-2.8,1.1-5.2,3-7.3C10.1,6.4,10.5,6.2,10.6,6.1z"/>
	<path class="st0" d="M52.3,14.2c0,2.9-1,5.4-3,7.5c-0.6,0.6-1.2,0.7-1.7,0.2c-0.5-0.5-0.5-1.1,0.1-1.7c3.2-3.6,3.2-8.6,0-12.1
		c-0.6-0.6-0.6-1.3-0.1-1.7c0.5-0.5,1.2-0.4,1.8,0.2C51.3,8.8,52.3,11.3,52.3,14.2z"/>
	<path class="st0" d="M10.9,14.2c0-1.8,0.6-3.3,1.8-4.7c0.6-0.6,1.2-0.7,1.7-0.2C15,9.7,15,10.4,14.4,11c-1.7,2-1.7,4.4,0,6.4
		c0.4,0.4,0.5,0.9,0.3,1.4c-0.2,0.4-0.6,0.7-1.1,0.6c-0.3-0.1-0.6-0.2-0.8-0.5C11.6,17.6,11,16,10.9,14.2z"/>
	<path class="st0" d="M48.2,14.2c0,1.8-0.6,3.3-1.9,4.7c-0.5,0.5-1.2,0.6-1.6,0.2c-0.5-0.4-0.5-1.1,0-1.7c1.8-2.1,1.8-4.3,0-6.5
		c-0.5-0.6-0.5-1.2,0-1.7c0.5-0.4,1.1-0.4,1.6,0.2C47.6,10.8,48.2,12.4,48.2,14.2z"/>
</g>
</svg>
