<?xml version="1.0" encoding="utf-8"?>
<!-- Generator: Adobe Illustrator 24.1.2, SVG Export Plug-In . SVG Version: 6.00 Build 0)  -->
<svg version="1.1" id="Слой_1" xmlns="http://www.w3.org/2000/svg" xmlns:xlink="http://www.w3.org/1999/xlink" x="0px" y="0px"
	 viewBox="0 0 1600 1200" style="enable-background:new 0 0 1600 1200;" xml:space="preserve">
<style type="text/css">
	.st0{fill:#FFFFFF;}
</style>
<g>
	<path class="st0" d="M864,647.2c63.8,0,127.6,0.2,191.4-0.1c21.3-0.1,33,12,37.2,29.2c4.5,18.2-2.1,36.9-19.7,46.8
		c-19.4,10.8-38.6,22-58,33c-2.1,1.2-4.7,2.1-7,2.1c-30.8,0.1-61.6,0-92.4,0c-25,0-49.9,0.2-74.9,0.2c-24.8,0-49.6-0.2-74.4-0.2
		c-14.8,0-29.6,0.2-44.5,0.1c-2.7,0-5.9-0.2-8.2-1.5c-21.4-12.1-42.9-24-63.7-36.9c-13.3-8.2-17.8-21.8-16.3-36.8
		c1.6-16.2,8.9-29.2,25.7-34.5c4-1.3,8.5-1.4,12.8-1.5C736,647.2,800,647.2,864,647.2z"/>
	<path class="st0" d="M684.5,579c0-4.8,0-9.1,0-13.4c0-9.4,2.4-12,11.6-12c28.1,0,56.1-0.1,84.2-0.1c40,0,80.1,0,120.1,0
		c46.5,0,93,0,139.6-0.1c8.4,0,11.6,3.1,11.8,11.7c0.1,4.5,0,8.9,0,13.9c5.2,0,10,0,14.8,0c7.4,0.1,10.5,3.2,10.5,10.6
		c0,10.3,0.1,20.7,0,31c0,6.1-3,9.2-9,9.5c-1.8,0.1-3.7,0-5.5,0c-136.1,0-272.3,0-408.4-0.1c-6.1,0-10.9,1.6-15,6.2
		c-4.9,5.4-10.3,10.4-15.5,15.6c-5.4,5.4-9.7,5.5-15,0.2c-7.7-7.6-15.4-15.3-23-23c-4.9-4.9-4.9-9.4,0-14.3
		c10.8-10.9,21.5-21.9,32.6-32.4c2.2-2.1,6.2-3.2,9.5-3.3C646.3,578.8,665,579,684.5,579z"/>
	<path class="st0" d="M735.9,519.5c-28.8,0-56.9,0-85,0c-3,7.1-5.1,8.5-12.7,8.5c-14.8,0-29.7,0-44.5,0c-8.7,0-11.6-3-11.7-11.7
		c0-4.3-0.2-8.7,0.1-13c0.3-6.3,3.5-9.4,9.8-9.4c16,0,31.9,0,47.9,0.1c6.6,0,8.6,1.5,10.9,8c28.1,0,56.3,0,85.2,0c0-2.3,0-4.6,0-6.8
		c0.2-6.5,3.3-9.7,9.7-10.1c0.5,0,1,0,1.5,0c17.5,1.3,34.3-2.3,51.3-5.5c9.4-1.8,19.1-1.9,28.7-2.7c3.4-0.3,6.9,0,10.9,0
		c0-3-0.1-5.6,0-8.2c0.3-5.4,3.5-8.7,8.9-8.7c22.6-0.1,45.3-0.1,67.9,0c5.3,0,8.2,3.1,8.7,8.9c0.2,2.6,0,5.2,0,8.7
		c12.5-3.9,16.7,4,20.4,13c3.6,8.5,8,16.7,11.8,25.2c1,2.2,1.7,4.7,1.9,7.1c0.8,10-2.6,13.7-12.7,13.7c-58,0-116.1,0-174.1,0
		c-7.7,0-15.3,0-23-0.1c-10.1,0-12.2-2.2-12.2-12.4C735.9,522.7,735.9,521.3,735.9,519.5z"/>
</g>
</svg>
