<?xml version="1.0" encoding="utf-8"?>
<!-- Generator: Adobe Illustrator 24.1.2, SVG Export Plug-In . SVG Version: 6.00 Build 0)  -->
<svg version="1.1" id="Слой_1" xmlns="http://www.w3.org/2000/svg" xmlns:xlink="http://www.w3.org/1999/xlink" x="0px" y="0px"
	 viewBox="0 0 60 60" style="enable-background:new 0 0 60 60;" xml:space="preserve">
<style type="text/css">
	.st0{fill:#FFFFFF;}
</style>
<g>
	<path class="st0" d="M18.1,57c-0.4-0.3-0.8-0.6-1.2-0.9c-1.2-1.2-2.4-2.3-3.6-3.6c-0.9,0.9-1.7,1.7-2.5,2.5c-1,1-1.9,1-2.9,0
		c-1.3-1.3-2.6-2.6-3.9-3.9c-1-1-1-1.8,0-2.8c6.5-6.5,13.1-13.1,19.6-19.6c0.4-0.3,0.4-0.6,0.2-1c-3.7-7.3-1.6-16.3,4.9-21.2
		C34.6,2.2,42.4,1.9,48.5,6c4.2,2.8,6.7,6.9,7.4,11.9c1,7.6-3.1,14.9-10.2,17.8c-4.8,2-9.6,1.8-14.3-0.5c-0.4-0.2-0.6-0.2-1,0.2
		c-3.3,3.3-6.6,6.6-9.9,9.9c-0.1,0.1-0.3,0.2-0.4,0.4c0.1,0.2,0.2,0.3,0.4,0.4c1.1,1.1,2.2,2.2,3.3,3.3c1,1,1,1.9,0,2.8
		c-1.2,1.2-2.5,2.5-3.7,3.7c-0.4,0.4-0.8,0.6-1.2,0.9C18.6,57,18.3,57,18.1,57z M39,11.7c-4.7,0-8.5,3.8-8.4,8.5
		c0.1,4.6,3.8,8.4,8.5,8.4c4.7,0,8.5-3.8,8.4-8.5C47.4,15.4,43.6,11.6,39,11.7z"/>
</g>
</svg>
