<?xml version="1.0" encoding="utf-8"?>
<!-- Generator: Adobe Illustrator 24.1.2, SVG Export Plug-In . SVG Version: 6.00 Build 0)  -->
<svg version="1.1" id="Слой_1" xmlns="http://www.w3.org/2000/svg" xmlns:xlink="http://www.w3.org/1999/xlink" x="0px" y="0px"
	 viewBox="0 0 1600 1200" style="enable-background:new 0 0 1600 1200;" xml:space="preserve">
<style type="text/css">
	.st0{fill:#FFFFFF;}
</style>
<g>
	<g>
		<path class="st0" d="M703.9,762.6c3-7.7,5.7-14.9,8.8-22.1c9.6-22.8,16-46.5,19.2-70.9c2.7-21.2,5.2-42.5,6.4-63.8
			c1.7-29.3,2.1-58.7,2.9-88c0.2-5.1,0-10.2,0-15.5c47.7,0,94.9,0,142.7,0c0,6.1-0.1,12.1,0,18.1c0.5,23.3,0.6,46.5,1.8,69.7
			c1,20.5,2.7,41,4.9,61.5c2.2,20.3,5.4,40.6,11.6,60.1c4.5,14.1,10.2,27.9,15.4,41.8c1.1,3,2.1,6,3.3,9.3
			C848.5,762.6,776.6,762.6,703.9,762.6z"/>
		<path class="st0" d="M883.5,354c14.1,0,27.7,0,41.8,0c0,1.2,0,2.3,0,3.5c0,27.8,0,55.6,0,83.4c0,15.7-10.1,25.7-25.7,25.7
			c-58.3,0-116.5,0-174.8,0c-14.5,0-24.9-10.3-24.9-24.8c0-28.2,0-56.4,0-84.7c0-0.9,0-1.9,0-3c14,0,27.6,0,41.5,0
			c0,11.7,0,23.3,0,35.1c11.8,0,23.6,0,35.6,0c0-11.6,0-23.3,0-35.1c23.8,0,47.2,0,71,0c0,11.7,0,23.3,0,35.2c12,0,23.6,0,35.5,0
			C883.5,377.6,883.5,366,883.5,354z"/>
		<path class="st0" d="M812.8,798.3c45.3,0,90.5,0,135.8,0c11.5,0,21.4,8.2,23.5,19.3c2.1,11.2-4.5,22.8-15.4,26.6
			c-2.8,1-5.8,1.6-8.8,1.6c-90.1,0.1-180.3,0.1-270.4,0.1c-11.7,0-20.6-6.3-24.1-17.1c-4.7-14.4,6.6-30.3,21.9-30.4
			c24.1-0.2,48.3-0.1,72.4-0.1C769.5,798.2,791.2,798.2,812.8,798.3C812.8,798.3,812.8,798.3,812.8,798.3z"/>
		<path class="st0" d="M812.7,768.6c39.3,0,78.5,0,117.8,0c9.6,0,15.2,9.1,11,17.5c-2.1,4.1-5.7,5.9-10.1,6.3c-0.6,0.1-1.3,0-1.9,0
			c-78.1,0-156.2,0-234.3,0c-9.3,0-15.2-7.9-12-16.2c1.8-4.6,6.1-7.6,11.2-7.6c27.6,0,55.1,0,82.7,0
			C788.9,768.6,800.8,768.6,812.7,768.6C812.7,768.6,812.7,768.6,812.7,768.6z"/>
		<path class="st0" d="M812.8,472.4c29.4,0,58.8,0,88.2,0c5.8,0,10.6,3.7,11.8,9c1.3,5.3-1,10.8-6,13.3c-1.9,1-4.3,1.4-6.5,1.4
			c-58.8,0.1-117.6,0.1-176.5,0c-6.9,0-12.2-5.2-12.2-11.9c0-6.7,5.3-11.9,12.2-11.9C753.6,472.4,783.2,472.4,812.8,472.4z"/>
	</g>
	<g>
		<path class="st0" d="M504.2,706.9c2.2-5.7,4.3-11.1,6.5-16.4c7.1-16.9,11.9-34.6,14.2-52.8c2-15.8,3.9-31.6,4.8-47.5
			c1.2-21.8,1.5-43.6,2.2-65.5c0.1-3.8,0-7.6,0-11.5c35.5,0,70.6,0,106.1,0c0,4.6-0.1,9,0,13.4c0.4,17.3,0.5,34.6,1.3,51.9
			c0.7,15.3,2,30.5,3.7,45.7c1.6,15.1,4,30.2,8.6,44.7c3.3,10.5,7.6,20.7,11.4,31.1c0.8,2.2,1.6,4.5,2.5,6.9
			C611.7,706.9,558.2,706.9,504.2,706.9z"/>
		<path class="st0" d="M637.7,403c10.5,0,20.6,0,31.1,0c0,0.9,0,1.7,0,2.6c0,20.7,0,41.3,0,62c0,11.6-7.5,19.1-19.1,19.1
			c-43.3,0-86.7,0-130,0c-10.8,0-18.5-7.7-18.5-18.5c0-21,0-42,0-63c0-0.7,0-1.4,0-2.2c10.4,0,20.6,0,30.9,0c0,8.7,0,17.3,0,26.1
			c8.8,0,17.5,0,26.5,0c0-8.7,0-17.3,0-26.1c17.7,0,35.1,0,52.8,0c0,8.7,0,17.4,0,26.2c8.9,0,17.6,0,26.4,0
			C637.7,420.6,637.7,411.9,637.7,403z"/>
		<path class="st0" d="M585.2,733.5c33.7,0,67.3,0,101,0c8.6,0,15.9,6.1,17.5,14.4c1.6,8.3-3.3,16.9-11.4,19.8
			c-2.1,0.7-4.3,1.2-6.5,1.2c-67,0.1-134.1,0.1-201.1,0c-8.7,0-15.3-4.7-17.9-12.7c-3.5-10.7,4.9-22.6,16.3-22.6
			c18-0.1,35.9-0.1,53.9-0.1C553,733.4,569.1,733.4,585.2,733.5C585.2,733.5,585.2,733.5,585.2,733.5z"/>
		<path class="st0" d="M585.1,711.4c29.2,0,58.4,0,87.6,0c7.1,0,11.3,6.8,8.1,13c-1.6,3-4.2,4.4-7.5,4.7c-0.5,0-1,0-1.4,0
			c-58.1,0-116.2,0-174.3,0c-6.9,0-11.3-5.9-9-12c1.3-3.4,4.5-5.6,8.4-5.6c20.5,0,41,0,61.5,0C567.4,711.4,576.2,711.4,585.1,711.4
			C585.1,711.4,585.1,711.4,585.1,711.4z"/>
		<path class="st0" d="M585.2,491.1c21.9,0,43.7,0,65.6,0c4.3,0,7.9,2.8,8.8,6.7c1,4-0.8,8.1-4.5,9.9c-1.4,0.7-3.2,1.1-4.8,1.1
			c-43.8,0.1-87.5,0.1-131.3,0c-5.2,0-9.1-3.9-9-8.8c0-5,3.9-8.8,9-8.8C541.1,491.1,563.2,491.1,585.2,491.1z"/>
	</g>
	<g>
		<path class="st0" d="M959.2,706.9c2.2-5.7,4.3-11.1,6.5-16.4c7.1-16.9,11.9-34.6,14.2-52.8c2-15.8,3.9-31.6,4.8-47.5
			c1.2-21.8,1.5-43.6,2.2-65.5c0.1-3.8,0-7.6,0-11.5c35.5,0,70.6,0,106.1,0c0,4.6-0.1,9,0,13.4c0.4,17.3,0.5,34.6,1.3,51.9
			c0.7,15.3,2,30.5,3.7,45.7c1.6,15.1,4,30.2,8.6,44.7c3.3,10.5,7.6,20.7,11.4,31.1c0.8,2.2,1.6,4.5,2.5,6.9
			C1066.7,706.9,1013.2,706.9,959.2,706.9z"/>
		<path class="st0" d="M1092.7,403c10.5,0,20.6,0,31.1,0c0,0.9,0,1.7,0,2.6c0,20.7,0,41.3,0,62c0,11.6-7.5,19.1-19.1,19.1
			c-43.3,0-86.7,0-130,0c-10.8,0-18.5-7.7-18.5-18.5c0-21,0-42,0-63c0-0.7,0-1.4,0-2.2c10.4,0,20.6,0,30.9,0c0,8.7,0,17.3,0,26.1
			c8.8,0,17.5,0,26.5,0c0-8.7,0-17.3,0-26.1c17.7,0,35.1,0,52.8,0c0,8.7,0,17.4,0,26.2c8.9,0,17.6,0,26.4,0
			C1092.7,420.6,1092.7,411.9,1092.7,403z"/>
		<path class="st0" d="M1040.2,733.5c33.7,0,67.3,0,101,0c8.6,0,15.9,6.1,17.5,14.4c1.6,8.3-3.3,16.9-11.4,19.8
			c-2.1,0.7-4.3,1.2-6.5,1.2c-67,0.1-134.1,0.1-201.1,0c-8.7,0-15.3-4.7-17.9-12.7c-3.5-10.7,4.9-22.6,16.3-22.6
			c18-0.1,35.9-0.1,53.9-0.1C1008,733.4,1024.1,733.4,1040.2,733.5C1040.2,733.5,1040.2,733.5,1040.2,733.5z"/>
		<path class="st0" d="M1040.1,711.4c29.2,0,58.4,0,87.6,0c7.1,0,11.3,6.8,8.1,13c-1.6,3-4.2,4.4-7.5,4.7c-0.5,0-1,0-1.4,0
			c-58.1,0-116.2,0-174.3,0c-6.9,0-11.3-5.9-8.9-12c1.3-3.4,4.5-5.6,8.4-5.6c20.5,0,41,0,61.5,0
			C1022.4,711.4,1031.2,711.4,1040.1,711.4C1040.1,711.4,1040.1,711.4,1040.1,711.4z"/>
		<path class="st0" d="M1040.2,491.1c21.9,0,43.7,0,65.6,0c4.3,0,7.9,2.8,8.8,6.7c1,4-0.8,8.1-4.5,9.9c-1.4,0.7-3.2,1.1-4.8,1.1
			c-43.8,0.1-87.5,0.1-131.3,0c-5.2,0-9.1-3.9-9-8.8c0-5,3.9-8.8,9-8.8C996.1,491.1,1018.2,491.1,1040.2,491.1z"/>
	</g>
</g>
</svg>
