<?xml version="1.0" encoding="utf-8"?>
<!-- Generator: Adobe Illustrator 24.1.2, SVG Export Plug-In . SVG Version: 6.00 Build 0)  -->
<svg version="1.1" id="Слой_1" xmlns="http://www.w3.org/2000/svg" xmlns:xlink="http://www.w3.org/1999/xlink" x="0px" y="0px"
	 viewBox="0 0 1600 1200" style="enable-background:new 0 0 1600 1200;" xml:space="preserve">
<style type="text/css">
	.st0{fill:#FFFFFF;}
</style>
<g>
	<path class="st0" d="M773,603c0-37-0.1-74,0-111c0-12.2,8.5-21.8,20.4-23.5c10.7-1.5,21.8,5.2,25,15.9c1.1,3.6,1.3,7.6,1.3,11.4
		c0.1,41.9,0.1,83.7,0.2,125.6c0,1.4,0,2.8,0,4.2c-0.1,4.7,0.2,9.6,6.3,9.8c5.6,0.1,6.2-4.4,6.7-9c1.4-12.6,11.9-21.6,24.6-21.4
		c12.6,0.2,22.1,9.4,23.9,22.3c0.4,2.8,2.8,5.9,5.1,7.7c0.9,0.7,4.9-1.2,6.4-2.9c1.3-1.4,1.2-4.2,1.5-6.3
		c1.8-12,11.2-20.5,23.2-20.8c12.7-0.4,23.1,8.5,24.7,21.1c0.1,0.6,0.1,1.2,0.2,1.8c0.3,4.1,2,7.4,6.4,7.4c4.7,0,6.3-3.3,6.7-7.7
		c1.4-15,13.5-24.5,28.2-22.3c10.5,1.5,19.1,10.2,20.1,21.3c4.1,45,2.3,89.7-11.1,133.2c-10.6,34.4-27.4,65.2-57.9,85.9
		c-38.4,26.1-80,35.9-124.8,17.9c-32.3-13-54.9-37.2-73.3-65.8c-12.9-20-20.7-42.4-28.9-64.5c-8.9-23.8-17.9-47.6-26.5-71.6
		c-6.1-16.8,6.1-33.3,23.4-31.9c9.5,0.8,15.9,6.1,20,14.6c11.3,23.7,22.6,47.4,34,71.1c0.8,1.6,1.2,3.8,2.5,4.8
		c2.1,1.5,4.9,3.2,7.1,2.8c1.8-0.3,3.6-3.3,4.6-5.4c0.7-1.5,0.2-3.6,0.2-5.4C773.1,675.8,773.1,639.4,773,603
		C773.1,603,773.1,603,773,603z"/>
	<path class="st0" d="M760.1,552.1c-41.3-7.2-77.3-62.4-73.1-111.2c4.9-56.4,51.1-99.6,107.5-100.2c57.8-0.7,104.4,41.1,110.8,99.4
		c5.3,47.9-30.5,103.5-72.6,112c0-11-0.2-21.8,0.2-32.7c0.1-1.7,2.5-3.8,4.3-5c35.4-22.9,46.3-68.9,24.5-104.4
		c-16.3-26.6-47.6-41.1-77.4-35.8c-32.3,5.7-57,29.2-63.3,60.1c-6.3,31.2,6.9,62.7,33.8,79.7c4,2.5,5.5,5,5.3,9.6
		C759.8,533.1,760.1,542.6,760.1,552.1z"/>
	<path class="st0" d="M833,501.2c-2.2-30.5-13.6-45-35.7-45.5c-11.9-0.3-21.6,4.4-29.2,13.5c-7.6,9.2-8.4,20.2-8,31.6
		c-17.5-6.5-30.4-36.3-26.9-61.1c4-28.6,28.1-50.6,58.4-53.6c28.1-2.7,56,15.8,65.2,43.4C865.6,456,855.2,487.9,833,501.2z"/>
	<path class="st0" d="M610.2,368.7c10.2,0.1,15.4,8.2,11.9,15.4c-0.8,1.6-2,3-3.2,4.4c-32.1,35.4-32.2,83.3-0.1,119
		c6.9,7.7,5.1,17.8-4,19.2c-3.5,0.5-8.6-1.3-11.2-3.8c-21.2-21.5-31.3-47.8-30.5-77.8c0.7-27.3,10.6-51.2,29.5-71.1
		C605.1,371.3,608.7,369.7,610.2,368.7z"/>
	<path class="st0" d="M1019.4,448.3c-0.4,28-10,53.1-29.8,74c-5.8,6.1-12,6.8-17,2c-5-4.7-4.6-10.7,1.2-17
		c31.8-34.9,31.8-83.9,0-118.6c-5.7-6.3-6.2-12.3-1.2-17.1c4.9-4.7,11.6-3.9,17.5,2.4C1009.3,394.7,1018.9,419.4,1019.4,448.3z"/>
	<path class="st0" d="M613.5,448c0.1-17.5,6-32.7,17.8-45.7c5.6-6.1,11.9-6.9,16.9-2.3c4.7,4.4,4.6,10.8-0.5,16.6
		c-16.8,19.4-16.8,42.7,0,62.5c3.6,4.2,5.3,8.6,2.6,13.8c-2.3,4.4-6.3,6.6-11.1,5.5c-2.7-0.6-5.6-2.4-7.6-4.5
		C619.6,481.1,613.6,465.7,613.5,448z"/>
	<path class="st0" d="M978.9,448.5c-0.1,17.4-6.2,32.7-18.4,45.7c-5,5.3-11.3,6-16.1,2c-4.9-4.2-5-10.8-0.1-16.6
		c17.3-20.7,17.2-42.6-0.3-63.4c-4.6-5.5-4.5-12,0.2-16.2c4.8-4.3,11.1-3.7,16.1,1.6C972.6,414.6,978.8,430.1,978.9,448.5z"/>
</g>
</svg>
