<?xml version="1.0" encoding="utf-8"?>
<!-- Generator: Adobe Illustrator 24.1.2, SVG Export Plug-In . SVG Version: 6.00 Build 0)  -->
<svg version="1.1" id="Слой_1" xmlns="http://www.w3.org/2000/svg" xmlns:xlink="http://www.w3.org/1999/xlink" x="0px" y="0px"
	 viewBox="0 0 1600 1200" style="enable-background:new 0 0 1600 1200;" xml:space="preserve">
<style type="text/css">
	.st0{fill:#FFFFFF;}
</style>
<g>
	<path class="st0" d="M821.8,631.1c-28.5,0-56.2,0-84.7,0c0-7.3,0.2-14.3-0.1-21.2c-0.1-2.2-1.2-5.3-2.9-6.2
		c-19.2-10.1-34.6-24.3-46.7-42.8c-6.1,4.7-11.9,9.3-18.2,14.2c-5.1-6.5-10.2-13-15.3-19.5c-9.7-1.7-20.9-2.4-31.2-5.9
		c-25.9-8.6-40.4-29-50.7-52.9c-10.8-25.2-15.6-51.8-19-78.8c-0.2-1.7-0.1-3.5-0.7-5c-3.8-10.2,1-17.5,8.3-23.6
		c1.8-1.5,4.9-2.2,7.4-2.2c27.5-0.1,55.1-0.1,83.6-0.1c0-7.9,0-15.9,0-24.1c85.9,0,170.8,0,256.5,0c0,7.9,0,15.4,0,24.1
		c2.9,0,5.1,0,7.4,0c25,0,50,0,75.1,0c7.4,0,17.3,10.3,16.5,17.4c-3.2,29.5-7.5,58.9-18.3,86.8c-8.3,21.3-19.8,40.3-40,52.6
		c-13.9,8.4-29.2,10.9-43.3,10.5c-5.7,7.4-10.7,13.8-16.1,20.7c-5.8-4.5-11.3-8.7-16.1-12.5c-8.7,9.1-16.6,18.3-25.5,26.2
		c-6.4,5.7-14.2,10-21.6,14.4c-3.2,1.9-4.5,3.8-4.4,7.4C822,617.2,821.8,623.8,821.8,631.1z M671.1,528.3
		c-10.5-29.2-15.5-58.9-17.8-89.2c-0.1-1.6-2-3.6-3.6-4.4c-5.4-2.8-11-5.1-16.6-7.7c1.4-3.3,2.6-6,3.7-8.7c2.3-6,1.3-7.6-5.4-7.6
		c-13.3-0.1-26.7,0-40,0c-5,0-10,0-15.5,0c3.4,29.3,8,57.5,21.4,83.3C613.1,524.7,637.6,535.9,671.1,528.3z M891,528.9
		c24,6.4,47.7-1.9,62.7-22.8c13.7-19,19.7-41,24-63.6c1.9-10.3,3.4-20.6,5.2-31.7c-20.3,0-39.3-0.1-58.3,0.1c-3.9,0-5,2.7-3.6,6.2
		c1.3,3.3,2.7,6.5,4.1,10.2c-4.7,2.1-8.8,4.3-13.2,5.8c-4,1.4-5.4,3.9-5.5,8c-0.3,7.2-0.7,14.4-2.1,21.5
		C900.3,484.5,895.6,506.4,891,528.9z M688.7,388.1c1,47.9,3.1,94.8,21,139.3c7.7,19,18.8,35.5,37,46.3c7.6,4.5,8.4,4.3,13.6-3.4
		c-17.8-18-26-40.7-31.6-64.7c-8.3-35.5-10.2-71.6-10.4-107.9c0-3.1,0-6.2,0-9.6C708.3,388.1,699,388.1,688.7,388.1z"/>
	<path class="st0" d="M751.5,646.4c12.1,0,24.7-0.1,37.4,0c6.1,0,14.1-1.9,17.8,1.2c3.7,3,3.2,11.2,4.4,17.2
		c6.3,31.5,18.4,59.8,42.7,81.9c9.6,8.7,19.7,15.2,33.5,12.7c2.6-0.5,5.4-0.1,8.4-0.1c0,15.1,0,29.4,0,44.3c-77.5,0-154.9,0-232.8,0
		c0-14.5,0-28.8,0-44.3c5.8,0,11.7,0.5,17.5-0.2c4.6-0.6,9.7-1.7,13.4-4.2c25.2-17.1,40.1-41.5,48.5-70.2
		C746,672.5,748.4,659.8,751.5,646.4z"/>
</g>
</svg>
