<?xml version="1.0" encoding="utf-8"?>
<!-- Generator: Adobe Illustrator 24.1.2, SVG Export Plug-In . SVG Version: 6.00 Build 0)  -->
<svg version="1.1" id="Слой_1" xmlns="http://www.w3.org/2000/svg" xmlns:xlink="http://www.w3.org/1999/xlink" x="0px" y="0px"
	 viewBox="0 0 1600 1200" style="enable-background:new 0 0 1600 1200;" xml:space="preserve">
<style type="text/css">
	.st0{fill:#FFFFFF;}
</style>
<g>
	<path class="st0" d="M787.1,994.7c-230-1.2-412.9-189-408-417.8c4.8-224.3,188.8-401.3,411.2-399.9
		c227.4,1.4,409.1,187.6,406.2,413.9C1193.7,815,1011.5,994.6,787.1,994.7z M790.9,906.6c10.3-0.6,20.6-0.9,30.9-2
		c38.9-4.2,75.2-16.8,109.9-34.4c40.4-20.4,74.4-48.9,102.9-84.1c43.6-53.8,68.9-114.9,73.1-184.3c1.9-30.3-2.4-60-9.6-89.5
		c-13.4-54.9-39.6-102.8-78-144.1c-29-31.2-62.8-56-101.5-73.9c-31.7-14.7-64.8-24.3-99.7-26.4c-16.2-1-32.6-0.1-48.9-0.1
		c-26.9,0-53,4.6-78.4,12.9c-58.4,19.1-106.3,53.7-145.5,100.5c-30.4,36.3-52.6,77.2-66.1,122.6c-11.2,37.6-15.4,75.9-11.6,115
		c3.9,39.5,17.3,76.1,35,111.2c15.8,31.5,37.2,59,62.9,83.3c38.3,36.1,82.4,62.3,132.5,78.2C728.6,901.1,759.4,906.2,790.9,906.6z"
		/>
	<path class="st0" d="M981,415.8c-5.6,11.3-10.7,21.5-15.8,31.7c-35,70-70,140.1-105.2,210.1c-1,2-3,4.1-5,5.1
		c-58.8,29.5-117.6,58.9-176.4,88.3c-19.8,9.9-39.6,19.8-59.4,29.8c-1.6,0.8-3.2,1.5-6,2.8c2.7-5.6,4.7-10.2,7-14.6
		c27.1-54.2,54.2-108.3,81.3-162.5c10.6-21.3,21.2-42.6,32.1-63.7c1.3-2.6,3.8-5.1,6.4-6.4c59.6-29.9,119.2-59.7,178.9-89.5
		c19.5-9.7,39-19.5,58.5-29.2C978.1,417.2,979,416.8,981,415.8z M660.8,735.9c52.7-26.4,104.1-52.1,155-77.6
		c-26-26-51.7-51.6-77.5-77.4C712.8,631.9,687.1,683.2,660.8,735.9z"/>
</g>
</svg>
