<svg xmlns="http://www.w3.org/2000/svg"  viewBox="0 0 50 50" width="50px" 
fill="currentColor" height="50px"><path d="M 12 3 C 7.0545455 3 3 7.0545455 3 12 L 3 38 C 3 42.945455 7.0545455 47 12 47 L 38 47 C 42.945455 47 47 42.945455 47 38 L 47 12 C 47 7.0545455 42.945455 3 38 3 L 12 3 z M 12 5 L 38 5 C 41.854545 5 45 8.1454545 45 12 L 45 38 C 45 41.854545 41.854545 45 38 45 L 12 45 C 8.1454545 45 5 41.854545 5 38 L 5 12 C 5 8.1454545 8.1454545 5 12 5 z M 22.201172 19 C 19.901172 19 18.602734 19.396563 17.302734 21.976562 C 16.202734 24.060562 15.101563 27.136312 15.101562 29.320312 C 15.101562 31.106313 16.501562 32 18.101562 32 C 19.501562 32 21.701172 31.504531 21.701172 29.519531 C 21.701172 28.725531 21.001563 28.328125 20.101562 28.328125 C 19.301562 28.328125 18.801563 28.426391 18.101562 28.525391 C 18.301562 27.731391 18.501562 27.036625 18.601562 26.640625 C 20.301562 26.938625 21.701563 26.838953 22.101562 25.251953 C 22.501562 24.060953 21.601562 23.664281 19.601562 23.863281 C 20.001562 22.871281 20.302734 22.373047 20.302734 22.373047 C 20.702734 22.373047 21.402344 22.374391 21.902344 22.275391 C 23.002344 22.176391 24.101563 21.779625 24.101562 20.390625 C 24.301562 19.496625 23.101172 19 22.201172 19 z M 29.201172 19 C 26.001172 19 24.800563 20.985672 23.601562 23.763672 C 23.101562 25.053672 22.302734 27.335609 22.302734 28.724609 C 22.302734 30.709609 23.501953 31.800781 25.501953 31.800781 C 28.401953 31.800781 30.402953 29.518625 31.001953 26.640625 C 31.201953 25.747625 31.401172 24.061156 29.201172 24.160156 C 28.101172 24.259156 27.301953 24.457438 27.001953 25.648438 C 26.601953 26.839437 28.001953 26.839844 28.001953 26.839844 C 27.701953 28.030844 26.901172 28.824219 26.201172 28.824219 C 25.801172 28.824219 25.401953 28.627766 25.501953 27.634766 C 25.701953 26.344766 26.901953 22.969781 27.501953 22.175781 C 27.701953 21.778781 28.101563 21.480469 28.601562 21.480469 C 29.301562 21.480469 29.201563 21.878391 29.101562 22.275391 C 28.701563 23.763391 30.100391 23.763672 30.400391 23.763672 C 31.500391 23.664672 32.200391 22.870078 32.400391 21.580078 C 32.600391 19.794078 31.101172 19 29.201172 19 z M 37.900391 19.099609 C 34.700391 19.000609 33.600563 21.182328 32.601562 23.861328 C 32.001562 25.350328 31.300781 27.533094 31.300781 29.121094 C 31.300781 31.403094 32.900391 31.900391 34.400391 31.900391 C 35.799391 31.900391 37.500781 31.602094 38.800781 29.121094 C 39.600781 27.632094 40.399219 25.649891 40.699219 23.962891 C 40.999219 22.473891 41.700391 19.099609 37.900391 19.099609 z M 14.601562 19.197266 C 13.601562 19.197266 13.002344 19.595281 12.402344 20.488281 C 11.302344 22.274281 9.0555938 27.658719 9.0585938 30.011719 C 9.0585938 31.301719 10.001172 31.900391 11.201172 31.900391 C 12.801172 31.999391 14.602734 31.502578 14.802734 29.517578 C 14.902734 28.822578 14.402344 28.128781 12.402344 28.425781 C 13.202344 26.540781 15.802734 21.777453 15.802734 20.189453 C 15.802734 19.695453 15.501563 19.197266 14.601562 19.197266 z M 37.501953 21.779297 C 38.001953 21.779297 38.001953 22.175047 38.001953 22.373047 C 37.901953 23.365047 36.401953 27.534125 36.001953 28.328125 C 35.800953 28.725125 35.501562 29.023437 35.101562 29.023438 C 34.701563 29.023438 34.501953 28.724734 34.501953 28.427734 C 34.401953 27.534734 36.101172 22.969781 36.701172 22.175781 C 36.901172 21.778781 37.201953 21.779297 37.501953 21.779297 z"/></svg>