<?xml version="1.0" encoding="utf-8"?>
<!-- Generator: Adobe Illustrator 24.1.2, SVG Export Plug-In . SVG Version: 6.00 Build 0)  -->
<svg version="1.1" id="Слой_1" xmlns="http://www.w3.org/2000/svg" xmlns:xlink="http://www.w3.org/1999/xlink" x="0px" y="0px"
	 viewBox="0 0 60 60" style="enable-background:new 0 0 60 60;" xml:space="preserve">
<style type="text/css">
	.st0{fill:#FFFFFF;}
</style>
<g>
	<path class="st0" d="M16.5,58.9c-0.9-0.2-1.7-0.6-2.3-1.3c-0.6-0.8-0.9-1.6-0.9-2.6c0-13.6,0-27.2,0-40.8c0-2.8,0-5.6,0-8.4
		c0-1.9,1.3-3.6,3.1-3.8c0.1,0,0.1-0.1,0.1-0.1c2.8,0,5.6,0,8.5,0c0,7.2,0,14.5,0,21.7c0,1,0,2.1,0,3.1c0,0.2,0.2,0.5,0.4,0.6
		c3.5,2,7.1,4,10.7,5.9c0.5-1,0.9-2,1.4-3c0.1-0.1,0-0.3,0-0.5c-0.6-1.7,0.3-3.5,2-4c1.7-0.5,3.4,0.5,3.9,2.3
		c0.3,1.4-0.5,2.9-1.8,3.5c-0.3,0.1-0.6,0.4-0.7,0.7c-0.5,0.9-0.9,1.9-1.4,2.9c1.2,0.7,2.4,1.3,3.6,2c1.5,0.8,2.2,2,2.2,3.7
		c0,4.5,0,9,0,13.6c0,2.7-0.7,3.7-3.2,4.5C33.5,58.9,25,58.9,16.5,58.9z"/>
	<path class="st0" d="M27.1,27.2c0-8.4,0-16.7,0-25c1,0,1.8,0.5,2.5,1.1c1.3,1.4,2,3,2.5,4.8c0.9,3.2,1.1,6.4,0.7,9.7
		c-0.3,2.5-0.9,4.9-2.2,7.1c-0.7,1.1-1.4,2-2.7,2.3C27.6,27.1,27.4,27.1,27.1,27.2z"/>
	<path class="st0" d="M37.2,18.5c0-0.7,0.6-1.2,1.2-0.9c1.4,0.5,2.9,1.1,4.3,1.7c1.5,0.6,3.1,1.3,4.6,1.9c0.1,0,0.2,0.1,0.3,0.1
		c0.6,0.3,0.8,0.8,0.6,1.3c-0.2,0.5-0.7,0.7-1.3,0.4c-1.4-0.6-2.8-1.1-4.2-1.7c-1.5-0.6-3-1.3-4.5-1.9
		C37.6,19.3,37.2,19.1,37.2,18.5z"/>
	<path class="st0" d="M37.9,11.9c-0.2-0.2-0.6-0.4-0.7-0.8c-0.2-0.4,0-0.9,0.5-1.1c1-0.5,2.1-0.9,3.1-1.3c1.9-0.8,3.9-1.6,5.8-2.4
		c0.3-0.1,0.6-0.2,0.8-0.2c0.4,0.1,0.7,0.4,0.8,0.8c0,0.5-0.2,0.8-0.7,1c-0.9,0.4-1.7,0.7-2.6,1.1c-2.1,0.8-4.1,1.7-6.2,2.6
		C38.5,11.7,38.3,11.8,37.9,11.9z"/>
	<path class="st0" d="M42.7,15.6c-1.5,0-3,0-4.4,0c-0.7,0-1.1-0.3-1.1-0.9c0-0.6,0.4-1,1.1-1c2.9,0,5.8,0,8.7,0
		c0.5,0,0.9,0.1,1.1,0.6c0.1,0.3,0,0.7-0.1,0.9s-0.5,0.4-0.8,0.4C45.7,15.6,44.2,15.6,42.7,15.6L42.7,15.6z"/>
</g>
</svg>
