<?xml version="1.0" encoding="utf-8"?>
<!-- Generator: Adobe Illustrator 24.1.2, SVG Export Plug-In . SVG Version: 6.00 Build 0)  -->
<svg version="1.1" id="Слой_1" xmlns="http://www.w3.org/2000/svg" xmlns:xlink="http://www.w3.org/1999/xlink" x="0px" y="0px"
	 viewBox="0 0 60 60" style="enable-background:new 0 0 60 60;" xml:space="preserve">
<style type="text/css">
	.st0{fill:currentColor;}
</style>
<g>
	<g>
		<path class="st0" d="M29.9,58.1c-15.8-0.1-28.3-13-28-28.7C2.3,14,14.9,1.9,30.1,2C45.7,2.1,58.2,14.9,58,30.4
			C57.8,45.8,45.3,58.1,29.9,58.1z M30.2,52c0.7,0,1.4-0.1,2.1-0.1c2.7-0.3,5.2-1.2,7.5-2.4c2.8-1.4,5.1-3.4,7.1-5.8
			c3-3.7,4.7-7.9,5-12.6c0.1-2.1-0.2-4.1-0.7-6.1c-0.9-3.8-2.7-7.1-5.4-9.9c-2-2.1-4.3-3.8-7-5.1c-2.2-1-4.4-1.7-6.8-1.8
			c-1.1-0.1-2.2,0-3.4,0c-1.8,0-3.6,0.3-5.4,0.9c-4,1.3-7.3,3.7-10,6.9c-2.1,2.5-3.6,5.3-4.5,8.4c-0.8,2.6-1.1,5.2-0.8,7.9
			c0.3,2.7,1.2,5.2,2.4,7.6c1.1,2.2,2.6,4,4.3,5.7c2.6,2.5,5.7,4.3,9.1,5.4C25.9,51.7,28,52,30.2,52z"/>
	</g>
	<g>
		<path class="st0" d="M4.8,31.7c0-1.2,0-2.5,0-3.7c0.1-0.6,0.2-1.1,0.3-1.7c1.4-10,8.8-18.3,18.6-20.7C25.1,5.2,26.6,5,28,4.7
			c1.2,0,2.5,0,3.7,0c0.5,0.1,1.1,0.2,1.6,0.2C43.6,6.4,52,14.1,54.3,24.1c0.3,1.3,0.4,2.5,0.7,3.8c0,1.2,0,2.5,0,3.7
			c-0.1,0.8-0.2,1.7-0.4,2.5c-1.6,9.7-9.3,17.9-19,20c-1.3,0.3-2.6,0.4-3.9,0.7c-1.2,0-2.5,0-3.7,0c-0.5-0.1-1.1-0.2-1.6-0.2
			C16.3,53.2,8.1,45.9,5.6,36C5.2,34.6,5.1,33.1,4.8,31.7z M5.8,30.4C6,44,17.6,54,29.2,53.9c0-0.3,0-0.6,0-0.8c0-5.5,0-11,0-16.6
			c0-0.6-0.2-1.3,0.5-1.8c0.1,0,0.1-0.2,0.1-0.2c0-1.4,0-2.9,0-4.3c-0.1,0-0.2-0.1-0.2-0.1c-1.4,0-2.8,0-4.2,0
			c-0.1,0-0.2,0.1-0.4,0.1c-0.4,0.1-0.7,0.3-1.1,0.3c-5.7,0-11.4,0-17.1,0C6.4,30.4,6.1,30.4,5.8,30.4z M30.7,53.9
			c13.1-0.2,23.4-11.7,23.3-23.5c-0.1,0-0.3,0-0.4,0c-3.2,0-6.4,0.1-9.6,0c-3.2-0.1-6.4,0.4-9.5-0.3c-1.2-0.3-2.5,0-3.8,0
			c-0.4,0-0.5,0.1-0.5,0.5c0,1.2,0,2.5,0,3.7c0,0.2,0.1,0.4,0.2,0.6c0.1,0.3,0.4,0.7,0.4,1.1c0,5.8,0,11.5,0,17.3
			C30.7,53.4,30.7,53.7,30.7,53.9z M29.7,29.7c0-1.5,0-3,0-4.5c0-0.1-0.1-0.2-0.2-0.3c-0.1-0.3-0.3-0.7-0.4-1.1c0-5.8,0-11.5,0-17.3
			c0-0.3,0-0.5,0-0.8C15.8,6,5.7,17.5,5.8,29.1c0.3,0,0.5,0,0.8,0c5.6,0,11.2,0,16.8,0c0.6,0,1.2-0.1,1.7,0.5
			c0.1,0.1,0.2,0.1,0.3,0.1C26.8,29.7,28.2,29.7,29.7,29.7z M54,29.1C53.6,15.3,41.7,5.6,30.7,5.8c0,0.3,0,0.5,0,0.8
			c0,5.8,0,11.5,0,17.3c0,0.2,0,0.6-0.1,0.7c-0.6,0.5-0.5,1.2-0.5,1.9c0,1.1,0,2.1,0,3.3c1.5,0,2.9,0,4.3,0c0.2,0,0.3-0.2,0.5-0.2
			c0.4-0.1,0.7-0.3,1.1-0.3c5.7,0,11.5,0,17.2,0C53.4,29.1,53.7,29.1,54,29.1z"/>
	</g>
</g>
</svg>
