<?xml version="1.0" encoding="utf-8"?>
<!-- Generator: Adobe Illustrator 24.1.2, SVG Export Plug-In . SVG Version: 6.00 Build 0)  -->
<svg version="1.1" id="Слой_1" xmlns="http://www.w3.org/2000/svg" xmlns:xlink="http://www.w3.org/1999/xlink" x="0px" y="0px"
	 viewBox="0 0 1600 1200" style="enable-background:new 0 0 1600 1200;" xml:space="preserve">
<style type="text/css">
	.st0{fill:#FFFFFF;}
</style>
<g>
	<g>
		<path class="st0" d="M707.5,860.5c-8.8-2-14.8-7.9-21-14.1c-9.1-9-18.9-17.3-28.6-25.6c-10.4-8.9-20.9-17.6-29.1-28.7
			c-14.5-19.7-15-40.5-4.8-62.1c7.7-16.3,20.2-28.7,35-38.4c13.5-9,27.8-16.8,41.7-25.3c9.2-5.7,18.2-11.7,27.2-17.6
			c0.4-0.3,0.8-0.7,1.4-1.2c-4-4.5-8-8.9-11.9-13.4c-16.7-19.4-30.9-40.3-39-64.9c-4.7-14.4-6.8-29.2-7.1-44.3c0-1.2,0-2.5,0-4.2
			c-5.6,1.2-10.7,2.3-15.9,3.6c-34.3,8.2-68.2,18.1-101.5,29.7c-24.1,8.4-40.2-9.5-41.5-28.6c-1.2-18.6,7.4-30.8,25-36.8
			c33.2-11.2,66.8-21.3,100.9-29.3c12-2.8,24.2-5.3,36.3-7.9c1-0.2,2.1-0.3,3.1-0.7c0.7-0.3,1.2-1.1,1.8-1.7
			c-0.6-0.4-1.2-1.1-1.9-1.2c-3-0.5-6-0.9-9-1.3c-30.8-4.5-61.1-11-90.7-20.6c-7.7-2.5-15.4-4.9-22.8-8.1c-16.2-7-24-24.1-19.5-41.9
			c3-12,9.6-20.9,22.4-23.8c5.1-1.2,10.2-0.4,15.2,1.2c18.6,5.9,37.1,12.2,55.9,17.3c23.2,6.3,46.9,10.1,70.9,12.9
			c4.1,0.5,8.3,1.6,12.1,3c2.4,0.9,4.2,0.8,6.5,0.1c17.9-5.5,34.5-3.1,49.1,9c10.6,8.7,15.6,20.5,17.5,33.9
			c1.6,11.8-1.4,23.2-2.9,34.7c-2.2,16.5-4.3,33.1-6.2,49.6c-2.3,19.1,3.7,35.6,16.8,49.5c8.5,9.1,17.1,18.2,25.9,27.5
			c5.6-3.3,10.7-6.4,15.9-9.4c32.5-18.5,64.8-37.1,97.4-55.4c21.8-12.2,43.9-23.8,65.9-35.6c25.2-13.6,48.2,6.6,50.7,27.3
			c1.6,13.3-4.1,23.8-16.2,30.4c-15.8,8.6-31.6,17-47.3,25.6c-51.5,28.3-102.8,57-152.7,88c-25.1,15.6-49.5,32.5-74.5,48.3
			c-15.9,10.1-32.5,19.2-48.6,29.1c-6.6,4-12.7,8.9-19,13.4c-1.9,1.4-3.9,2.8-6.5,4.6c13.7,11,27.3,21.8,40.7,32.9
			c4.3,3.5,8.2,7.5,12,11.6c20.2,21.9,3.8,53.4-19.1,58.3c-0.6,0.1-1.2,0.4-1.7,0.6C713,860.5,710.2,860.5,707.5,860.5z"/>
		<path class="st0" d="M821,293c7,1.4,13.8,3.1,20.2,6.6c19.8,11.1,30.3,33.3,26.3,55.7c-3.9,21.9-21.9,39.3-44.2,42.5
			c-26.5,3.9-51.8-12.6-58.6-38.1c-7.1-26.4,6.2-53.1,31.7-63.1c4.4-1.7,9.3-2.5,13.9-3.7C813.9,293,817.4,293,821,293z"/>
	</g>
	<g>
		<path class="st0" d="M945,301.2c3.4,2,4.8,5.2,6.3,8.8c4,10.2,11.1,18.3,19.9,24.7c5.6,4.1,11.3,8,17.1,11.9
			c27.1,18.3,33.8,43.7,23.5,73.6c-2.8,8.2-7.6,15.9-12.1,23.4c-3.4,5.7-8.6,6.6-12.8,3.4c-4.1-3.1-4.3-7.6-0.3-12.8
			c1.9-2.5,2.1-4.8,1.3-7.9C982.5,406.8,970,394,951,386c-0.1,2.3-0.2,3.9-0.2,5.6c0,28.2,0,56.5,0,84.7c0,20.4-11.3,33.6-31.6,37.2
			c-1.2,0.2-2.4,0.6-3.6,0.9c-3.8,0-7.6,0-11.4,0c-7.1-2.7-15-4.4-21.2-8.4c-19.1-12.4-18.9-36.4,0.1-49.1
			c14.8-9.8,30.6-10.5,46.9-3.7c1.3,0.5,2.5,1.2,4.5,2.1c0-2.2,0-3.8,0-5.5c0-45.9,0.1-91.9-0.1-137.8c0-5,1.5-8.5,5.9-10.8
			C941.9,301.2,943.4,301.2,945,301.2z"/>
	</g>
</g>
</svg>
