<?xml version="1.0" encoding="utf-8"?>
<!-- Generator: Adobe Illustrator 24.1.2, SVG Export Plug-In . SVG Version: 6.00 Build 0)  -->
<svg version="1.1" id="Слой_1" xmlns="http://www.w3.org/2000/svg" xmlns:xlink="http://www.w3.org/1999/xlink" x="0px" y="0px"
	 viewBox="0 0 60 60" style="enable-background:new 0 0 60 60;" xml:space="preserve">
<style type="text/css">
	.st0{fill:#FFFFFF;}
</style>
<g>
	<path class="st0" d="M3,55.9c0.4-1.6,0.8-3.3,1.2-4.9c0.8-3.5,1.6-7,2.4-10.5c0.2-0.8,0.6-1.4,1.3-1.9C18,30.9,28.2,23.3,38.5,15.6
		c0.1-0.1,0.2-0.2,0.3-0.2c0.7,0.7,1.4,1.4,2.2,2.2C33,26.1,25,34.6,17,43.1c0,0,0,0,0.1,0.1c8.5-8,17-16,25.5-23.9
		c0.7,0.7,1.4,1.4,2.1,2.1c-1.4,1.9-2.9,3.8-4.4,5.8c-6.2,8.3-12.5,16.5-18.7,24.8c-0.6,0.8-1.4,1.3-2.4,1.6
		c-4.9,1.2-9.9,2.4-14.8,3.5c-0.8,0.2-0.9,0.1-1.4-0.5C3,56.3,3,56.1,3,55.9z"/>
	<path class="st0" d="M54.2,3c0.2,0.1,0.3,0.1,0.5,0.2c1.9,0.6,2.9,2.7,2.1,4.5c-0.7,1.8-3,2.6-4.7,1.7C51.5,9,51,8.5,50.5,8.1
		c0.1,0.9,0.7,1.7,1.9,2.7c-1.5,1.5-3.1,3-4.6,4.6c1,1,2,2,3,3c0.7,0.7,0.7,1.1,0,1.9c-0.3,0.3-0.6,0.6-0.9,0.9
		c-0.5,0.5-1,0.5-1.6,0c-2.6-2.5-5.1-5.1-7.7-7.6c-0.6-0.6-1.2-1.2-1.8-1.8c-0.5-0.5-0.5-1,0-1.6c0.3-0.4,0.7-0.7,1-1
		c0.6-0.5,1-0.5,1.6,0c1,1,2.1,2.1,3.1,3.1c0.1-0.1,0.2-0.2,0.3-0.3c1.7-1.7,3.4-3.4,5-5c0.1-0.1,0.3-0.4,0.3-0.6
		c0.1-1.7,1-2.8,2.6-3.3C53,3.1,53,3,53.1,3C53.5,3,53.9,3,54.2,3z"/>
</g>
</svg>
