<?xml version="1.0" encoding="utf-8"?>
<!-- Generator: Adobe Illustrator 24.1.2, SVG Export Plug-In . SVG Version: 6.00 Build 0)  -->
<svg version="1.1" id="Слой_1" xmlns="http://www.w3.org/2000/svg" xmlns:xlink="http://www.w3.org/1999/xlink" x="0px" y="0px"
	 viewBox="0 0 60 60" style="enable-background:new 0 0 60 60;" xml:space="preserve">
<style type="text/css">
	.st0{fill:#FFFFFF;}
</style>
<g>
	<path class="st0" d="M20.6,29.9c0,0.4,0.1,0.8,0.1,1.3c0.2,0.8,0.4,1.6,0.5,2.3c0.1,0.4,0.1,0.7,0.1,1.1c0,0.5-0.2,1-0.8,1.2
		C20,36,19.4,35.9,19,35.4c-0.4-0.4-0.7-0.9-0.9-1.4c-0.4-1-0.7-2-1.1-3c-0.2-0.5-0.4-1-1-1.2c-0.5,0.3-0.6,0.8-0.5,1.2
		c0.1,0.8,0.3,1.5,0.5,2.3c0.3,1.2,0.5,2.3,0.3,3.5c-0.1,0.6-0.3,1.2-1,1.3S14,38,13.7,37.5c-0.5-0.6-0.9-1.3-1.2-2
		c-1-2.2-1.6-4.5-1.8-7c-0.1-3,1.1-5.6,3-7.9c1.3-1.4,2.6-2.7,4.1-3.9c1.3-1.1,2.3-2.4,2.8-3.9c0.6-1.6,1.1-3.2,1.6-4.8
		c0.5-1.4,1-2.9,1.9-4.1c1-1.3,2.3-2,3.9-2.1c3.5-0.2,5.8,1.2,6.9,4.5c0.7,1.9,1.1,3.9,1.4,5.9c0.5,2.7,1.6,4.9,3.9,6.4
		c0.4,0.2,0.7,0.5,1.1,0.8c1.7,1.3,3.3,2.6,4.6,4.3c1.9,2.5,2.7,5.4,2.5,8.5c-0.1,1.1-0.3,2.2-0.6,3.3c-0.1,0.5-0.4,1.1-1.1,1.1
		c-0.7,0-1.1-0.5-1.3-1.1c-0.3-0.8-0.6-1.6-0.9-2.3c-0.2-0.5-0.4-1-0.7-1.3c-0.2-0.2-0.7-0.5-1-0.4c-0.3,0.1-0.5,0.5-0.6,0.9
		c-0.1,0.5,0,1,0,1.4c-0.1,0.5-0.1,1-0.4,1.3c-0.5,0.8-1.6,0.9-2.1,0.1c-0.3-0.5-0.5-1.1-0.7-1.7c-0.2-0.5-0.2-1.1-0.4-1.7
		c-0.2-0.7-0.6-1.2-1.4-1.4c-0.8-0.1-1.4,0.2-1.9,0.8c-0.3,0.5-0.6,1-0.8,1.6c-0.8,2.7-0.5,5.3,0.3,7.9c0.8,2.5,2.3,4.6,4,6.6
		c1,1.2,2.1,2.4,3.1,3.6c1.3,1.6,1.9,3.5,1.6,5.6c0,0.3-0.1,0.5-0.2,0.8c-0.1,0.2-0.2,0.5-0.4,0.5c-0.2,0-0.5-0.1-0.6-0.3
		c-1.3-2.2-3.4-3.5-5.5-4.9c-1.7-1.1-3.3-2.2-4.9-3.4c-2.5-2-4.3-4.6-5.6-7.5C25.2,39,24.1,36,22.9,33c-0.4-0.9-0.8-1.7-1.2-2.6
		C21.5,30.1,21.3,29.7,20.6,29.9z M27,14.3c0.1,1,0.4,1.4,0.8,2c0.6,0.9,1.4,0.8,2,0c0.8-1,0.8-3.1,0-4.1c-0.6-0.7-1.7-0.7-2.1,0.1
		C27.4,12.9,27,13.5,27,14.3z M24.8,9.3C24.8,9.3,24.8,9.3,24.8,9.3c0,0.2,0,0.4,0.1,0.6c0.3,1,1.1,1.1,1.7,0.4
		c0.6-0.7,0.9-1.5,0.6-2.5c-0.2-0.9-1.1-1.2-1.7-0.4C25.1,8,24.8,8.6,24.8,9.3z M32.9,9.5C33,8.5,32.5,7.7,32,7.3
		c-0.6-0.5-1.3-0.3-1.5,0.4c-0.3,0.8,0,2.2,0.7,2.7c0.6,0.5,1.2,0.4,1.5-0.3C32.9,9.9,32.9,9.6,32.9,9.5z"/>
</g>
</svg>
