<?xml version="1.0" encoding="utf-8"?>
<!-- Generator: Adobe Illustrator 24.1.2, SVG Export Plug-In . SVG Version: 6.00 Build 0)  -->
<svg version="1.1" id="Слой_1" xmlns="http://www.w3.org/2000/svg" xmlns:xlink="http://www.w3.org/1999/xlink" x="0px" y="0px"
	 viewBox="0 0 60 60" style="enable-background:new 0 0 60 60;" xml:space="preserve">
<style type="text/css">
	.st0{fill:#FFFFFF;}
</style>
<g>
	<path class="st0" d="M43.5,12.7c-1.3-0.9-2.7-1.6-4.2-2.1c-12.3-4.4-25.3,2.9-27.9,15.7c-2.4,11.5,5.6,23,17.2,24.8
		c7,1.1,13-0.8,18.1-5.7c2-2,5.2-1.2,6,1.4c0.4,1.3,0.1,2.5-0.9,3.5c-4,3.9-8.7,6.5-14.1,7.6c-14.9,3-29.3-6-32.8-20.8
		c-2.5-10.4,0.3-19.6,8-27.1c5.7-5.5,12.8-8,20.7-7.6c5.3,0.3,10.1,2,14.5,5c0.2,0.1,0.3,0.3,0.5,0.3c0.2-0.1,0.1-0.4,0.1-0.6
		c0-0.5,0-1.1,0.1-1.6c0.2-1.8,1.7-3.1,3.6-3.1c1.8,0,3.3,1.4,3.4,3.2c0.1,2.7,0,5.5,0,8.2c0,0.8,0,1.7,0,2.5
		c-0.1,2.1-1.5,3.5-3.6,3.6c-3.4,0-6.9,0-10.3,0c-2.1,0-3.6-1.5-3.6-3.5c0-2,1.5-3.5,3.6-3.5c0.5,0,1.1,0,1.6,0
		C43.4,12.8,43.4,12.8,43.5,12.7z"/>
</g>
</svg>
