<?xml version="1.0" encoding="utf-8"?>
<!-- Generator: Adobe Illustrator 24.1.2, SVG Export Plug-In . SVG Version: 6.00 Build 0)  -->
<svg version="1.1" id="Слой_1" xmlns="http://www.w3.org/2000/svg" xmlns:xlink="http://www.w3.org/1999/xlink" x="0px" y="0px"
	 viewBox="0 0 60 60" style="enable-background:new 0 0 60 60;" xml:space="preserve">
<style type="text/css">
	.st0{fill:currentColor;}
</style>
<g>
	<path class="st0" d="M3,23.9c0-0.7,0-1.5,0-2.2c0.1-0.3,0.1-0.6,0.2-0.9c0.5-2.9,1.9-5.4,3.9-7.5c2.9-3.1,6.5-5.1,10.4-6.4
		c2.7-1,5.6-1.6,8.5-1.9c4.3-0.4,8.6-0.2,12.9,0.8c4.3,1,8.3,2.6,11.7,5.3c2.2,1.7,4,3.7,5.2,6.2c1.3,2.6,1.6,5.4,1,8.2
		c-0.6,2.8-2.1,5.1-4,7.1c-2.1,2.2-4.6,3.8-7.4,5c-0.6,0.3-0.8,0.5-0.8,1.2c0,3.1-3.1,4.5-5.2,3.3c0,0-0.1,0-0.2,0
		c0,0.2-0.1,0.3-0.1,0.5c-0.4,1.4-1.3,2.3-2.7,2.6c-1.4,0.3-2.6-0.1-3.5-1.2c-0.6-0.7-0.8-1.6-0.9-2.5c-0.1-0.9-0.8-1.6-1.7-1.6
		c-0.9,0-1.7,0.6-1.8,1.5c0,0.2-0.1,0.4-0.1,0.6c-0.2,1.8-1.5,3.2-3.4,3.3c-1.8,0.1-3.3-1.2-3.6-2.8c0-0.1-0.1-0.2-0.1-0.3
		c-0.1,0.1-0.3,0.1-0.4,0.2c-2,0.8-4.3-0.3-4.9-2.4c-0.1-0.6-0.1-1.2-0.2-1.9c-0.4-0.2-0.8-0.3-1.2-0.5c-3-1.4-5.7-3.3-7.9-5.8
		c-1.5-1.8-2.7-3.9-3.2-6.2C3.2,24.9,3.1,24.4,3,23.9z M21.5,29.1c2.6-0.1,4.8-1.5,6.1-4.2c0.4-0.8,0.4-1.6,0-2.4
		c-1.2-2.3-3.1-3.7-5.7-4.1c-3.3-0.5-6.8,1.8-7.7,5c-0.1,0.2-0.1,0.4,0,0.6C15.1,27,17.9,29.1,21.5,29.1z M39.9,20.1
		c-2.3,0-4.3,1.5-5.1,3.7c-0.1,0.2-0.1,0.4,0,0.6c0.7,2.2,2.8,3.7,5.1,3.7c2.3,0,4.3-1.5,5.1-3.7c0.1-0.2,0.1-0.5,0-0.7
		C44.3,21.6,42.2,20.1,39.9,20.1z M27.7,27.9c-1.8,1.9-4,2.9-6.7,2.9c-2.6,0-4.8-1-6.7-2.9c0.8,2.5,3.5,4.7,6.6,4.7
		C23.9,32.7,26.8,30.8,27.7,27.9z M35.5,28.4c1.2,1.8,2.9,2.6,5,2.4c1.6-0.2,2.9-1,3.8-2.4c-1.3,0.9-2.8,1.4-4.4,1.4
		C38.3,29.9,36.9,29.4,35.5,28.4z"/>
	<path class="st0" d="M30.1,56.9c-2.6,0-5.2,0-7.9,0c-2.2,0-4-0.8-5.4-2.6c-0.7-1-1.1-2.2-1.2-3.4c0-0.7,0-1.4,0-2.1
		c0.1-2.5,2.6-4.2,4.9-3.3c1.4,0.6,2.1,1.7,2.3,3.3c0.1,1,0.6,1.6,1.5,1.8c1,0.2,2-0.5,2.1-1.5c0.1-0.7,0.1-1.4,0.5-2
		c0.8-1.3,2-1.9,3.5-1.8c1.5,0.1,2.5,1,3,2.4c0.2,0.5,0.2,1.1,0.3,1.7c0.1,0.8,0.5,1.3,1.3,1.5c1,0.3,2.1-0.4,2.2-1.5
		c0.1-0.5,0.1-1,0.2-1.5c0.4-1.6,1.9-2.6,3.4-2.6c1.7,0,3.1,1.1,3.4,2.7c0.2,1,0.2,2.1,0.1,3.2c-0.2,2.9-2.3,5.1-5.2,5.6
		c-0.5,0.1-0.9,0.1-1.4,0.1C35.2,56.9,32.6,56.9,30.1,56.9z"/>
</g>
</svg>
