<!-- icon666.com - MILLIONS OF FREE VECTOR ICONS --><svg id="Capa_1" enable-background="new 0 0 512 512"
fill="currentColor" viewBox="0 0 512 512" xmlns="http://www.w3.org/2000/svg"><g><path d="m90.077 257.597c-2.479-3.318-7.177-3.998-10.497-1.521-3.318 2.479-3.999 7.179-1.52 10.497l.062.083c1.473 1.972 3.729 3.012 6.014 3.012 1.561 0 3.136-.485 4.483-1.491 3.318-2.479 3.999-7.179 1.52-10.497z"></path><path d="m491.977 223.157-15.771-15.771c-6.824-6.821-17.925-6.823-24.749 0l-136.859 136.858-15.046-2.981v-24.149c20.024-9.102 37.007-24.377 48.24-44.204 20.298-.142 36.768-16.693 36.768-37.024v-41.988h10.676c9.563 0 17.344-7.78 17.344-17.343v-30.206c0-9.563-7.78-17.344-17.344-17.344h-10.676v-2.418c0-6.076-3.147-11.422-7.89-14.521-4.773-63.088-57.348-112.066-121.018-112.066-25.5 0-49.908 7.825-70.583 22.629-3.368 2.411-4.143 7.096-1.732 10.464 2.411 3.367 7.095 4.144 10.464 1.731 18.114-12.969 39.502-19.824 61.851-19.824 54.461 0 99.651 40.885 105.68 94.244h-211.348c2.189-19.333 9.576-37.553 21.599-53.039 2.54-3.272 1.947-7.984-1.325-10.524-3.273-2.54-7.984-1.945-10.523 1.325-14.653 18.875-23.276 41.307-25.078 65.048-4.754 3.096-7.911 8.449-7.911 14.533v2.418h-10.676c-9.563 0-17.343 7.78-17.343 17.344v30.206c0 9.563 7.78 17.343 17.343 17.343h10.676v41.988c0 20.334 16.475 36.886 36.776 37.024 11.224 19.794 28.219 35.068 48.231 44.177v24.177l-22.627 4.483-87.841-117.409c-2.8-3.742-6.89-6.171-11.517-6.837-4.625-.666-9.236.508-12.979 3.309l-48.43 36.233c-9.748 7.293-14.679 18.86-13.191 30.943 1.488 12.082 9.08 22.107 20.306 26.816l16.404 6.882c23.925 10.035 45.821 23.697 65.267 40.671l-.83.187c-4.104.924-7.57 3.21-9.986 6.319l-11.971 2.413c-29.38 5.924-50.705 31.977-50.705 61.948v67.278c0 4.143 3.358 7.5 7.5 7.5s7.5-3.357 7.5-7.5v-67.278c0-22.857 16.263-42.727 38.67-47.243l5.335-1.076v115.597c0 4.143 3.358 7.5 7.5 7.5s7.5-3.357 7.5-7.5v-120.886c0-1.178.803-2.181 1.951-2.438l16.862-3.796c1.02-.229 1.76.207 2.109.486.351.28.938.907.938 1.953v124.681c0 4.143 3.358 7.5 7.5 7.5s7.5-3.357 7.5-7.5v-124.681c0-.457-.041-.906-.076-1.357l20.063-4.044v63.724c0 4.314 2.185 8.254 5.845 10.538 2.017 1.258 4.288 1.894 6.568 1.894 1.86 0 3.726-.422 5.467-1.273l49.722-24.326c5.556-2.719 8.244-8.976 6.391-14.879l-1.446-4.606c2.814.56 5.691.852 8.6.852s5.786-.292 8.599-.851l-1.447 4.607c-1.852 5.902.837 12.16 6.394 14.879l49.721 24.325c1.74.852 3.606 1.273 5.467 1.273 2.28 0 4.552-.636 6.568-1.894 3.66-2.284 5.846-6.224 5.846-10.538v-63.86l20.068 4.069c-.04.487-.082.975-.082 1.469v124.679c0 4.143 3.357 7.5 7.5 7.5s7.5-3.357 7.5-7.5v-124.681c0-1.046.588-1.672.938-1.953.35-.279 1.085-.722 2.111-.485l16.86 3.794c1.148.259 1.951 1.262 1.951 2.439v120.886c0 4.143 3.357 7.5 7.5 7.5s7.5-3.357 7.5-7.5v-115.653l5.387 1.092c22.378 4.536 38.619 24.4 38.619 47.233v67.328c0 4.143 3.357 7.5 7.5 7.5s7.5-3.357 7.5-7.5v-67.328c0-29.938-21.297-55.986-50.639-61.935l-3.32-.673 67.313-67.315c3.347-3.346 5.19-7.795 5.19-12.527 0-4.731-1.844-9.181-5.189-12.526l-11.66-11.66 22.628-22.628c6.825-6.825 6.825-17.927.002-24.751zm-96.742-79.152c1.292 0 2.344 1.052 2.344 2.344v30.206c0 1.292-1.052 2.343-2.344 2.343h-10.675v-34.893zm-279.166 34.892c-1.292 0-2.343-1.051-2.343-2.343v-30.206c0-1.292 1.051-2.344 2.343-2.344h10.676v34.893zm65.185 94.019h87.883c4.143 0 7.5-3.357 7.5-7.5s-3.357-7.5-7.5-7.5h-105.362c-12.147 0-22.03-9.883-22.03-22.03v-109.299c0-1.292 1.051-2.343 2.343-2.343h223.127c1.292 0 2.344 1.051 2.344 2.343v109.299c0 12.147-9.883 22.03-22.03 22.03h-45.402c-4.143 0-7.5 3.357-7.5 7.5s3.357 7.5 7.5 7.5h27.938c-16.887 24.12-44.43 38.685-74.412 38.685-29.901 0-57.499-14.585-74.399-38.685zm36.733 82.404c-.002 0-.005.001-.008.001zm-71.927 9.53c-3.296-1.998-7.129-2.856-10.966-2.424-22.602-21.482-48.626-38.499-77.414-50.574l-16.404-6.882c-6.204-2.603-10.398-8.142-11.221-14.818s1.902-13.068 7.289-17.099l48.43-36.234c.723-.539 1.474-.527 1.854-.472.383.055 1.105.255 1.645.977l86.643 115.808c-.899 1.725-1.412 3.669-1.412 5.714v.271zm43.445 69.16v-73.048l26.213-5.192 17.806 56.705zm66.147-42.67c-5.019 0-9.897-1.297-14.219-3.746l-12.097-38.525c-.544-1.733-1.443-3.259-2.583-4.538v-21.935c9.266 2.621 18.973 4.005 28.899 4.005 9.936 0 19.643-1.373 28.899-3.984v21.913c-1.14 1.28-2.039 2.805-2.583 4.539l-12.099 38.528c-4.321 2.448-9.197 3.743-14.217 3.743zm66.148 42.67-44.02-21.536 17.807-56.704 26.213 5.192zm159.569-196.71-23.203 23.203c-6.679-3.482-15.127-2.423-20.728 3.176l-43.128 43.129c-2.929 2.93-2.929 7.678 0 10.607 2.93 2.928 7.678 2.928 10.607 0l43.127-43.129c1.061-1.058 2.783-1.059 3.842-.001l18.515 18.517c.693.692.797 1.5.797 1.92s-.104 1.228-.797 1.92l-71.353 71.354c-1.264-.634-2.62-1.131-4.058-1.455l-16.859-3.794c-4.407-.995-8.928-.243-12.746 2.024l-6.505-1.319 22.709-22.709c2.929-2.93 2.929-7.678 0-10.607-2.93-2.928-7.678-2.928-10.607 0l-29.741 29.741-4.442-.9v-.131c0-4.172-2.103-7.945-5.376-10.212l130.639-130.639c.974-.975 2.559-.976 3.534 0l15.771 15.771c.978.973.978 2.559.002 3.534z"></path><path d="m348.56 200.334v-35.612c0-9.563-7.78-17.344-17.343-17.344h-151.129c-9.563 0-17.344 7.78-17.344 17.344v35.612c0 9.563 7.78 17.343 17.344 17.343h151.128c9.563 0 17.344-7.781 17.344-17.343zm-170.815 0v-35.612c0-1.292 1.051-2.344 2.344-2.344h151.128c1.292 0 2.343 1.052 2.343 2.344v35.612c0 1.292-1.051 2.343-2.343 2.343h-151.129c-1.292 0-2.343-1.051-2.343-2.343z"></path></g></svg>