<?xml version="1.0" encoding="utf-8"?>
<!-- Generator: Adobe Illustrator 24.1.2, SVG Export Plug-In . SVG Version: 6.00 Build 0)  -->
<svg version="1.1" id="Слой_1" xmlns="http://www.w3.org/2000/svg" xmlns:xlink="http://www.w3.org/1999/xlink" x="0px" y="0px"
	 viewBox="0 0 1600 1200" style="enable-background:new 0 0 1600 1200;" xml:space="preserve">
<style type="text/css">
	.st0{fill:#FFFFFF;}
</style>
<g>
	<path class="st0" d="M502.4,856.6c4-17.1,8.2-34.2,12.1-51.3c8.4-36.6,16.8-73.2,25.1-109.8c1.9-8.4,6.3-15,13.3-20.2
		c106.3-79.5,212.6-159.1,318.9-238.7c1.1-0.9,2.3-1.7,3.1-2.3c7.6,7.6,14.9,15,22.6,22.7c-82.9,88.4-166.1,177.2-249.3,265.9
		c0.2,0.2,0.5,0.5,0.7,0.7c88.8-83.2,177.5-166.4,266-249.3c7.5,7.5,14.6,14.6,21.9,22c-15,19.8-30.2,39.9-45.5,60.1
		c-65.1,86-130.3,171.9-195.2,257.9c-6.5,8.7-14.4,14-25,16.4c-51.5,12.1-103,24.6-154.5,36.9c-7.9,1.9-9.8,1.1-14.2-5.6
		C502.4,860.3,502.4,858.4,502.4,856.6z"/>
	<path class="st0" d="M1036.3,305.1c1.7,0.6,3.4,1.2,5.2,1.8c19.7,6.5,29.7,28,21.9,47c-7.6,18.5-30.9,27.2-48.8,17.5
		c-6.4-3.5-11.8-9-16.8-13c1.3,8.9,7,17.3,19.9,28.2c-16.1,15.8-32.1,31.6-48.4,47.7c10.9,10.9,21.3,21.3,31.6,31.6
		c7.6,7.6,7.6,11.7,0,19.3c-3.2,3.2-6.4,6.5-9.7,9.7c-5.6,5.3-10.4,5.2-16.2-0.5c-26.6-26.5-53.2-53.1-79.8-79.7
		c-6.2-6.2-12.5-12.4-18.7-18.7c-5.5-5.6-5.5-10.5,0-16.2c3.6-3.7,7.2-7.3,10.9-10.9c5.8-5.7,10.7-5.7,16.6,0.2
		c10.8,10.7,21.5,21.5,32.4,32.5c1.3-1.1,2.4-2,3.4-3c17.5-17.5,35-35,52.4-52.6c1.5-1.5,2.9-3.9,3-5.9c1.3-17.6,10.1-28.8,27-33.9
		c0.7-0.2,1.2-0.7,1.8-1C1028.3,305.1,1032.3,305.1,1036.3,305.1z"/>
</g>
</svg>
