<?xml version="1.0" encoding="utf-8"?>
<!-- Generator: Adobe Illustrator 24.1.2, SVG Export Plug-In . SVG Version: 6.00 Build 0)  -->
<svg version="1.1" id="Слой_1" xmlns="http://www.w3.org/2000/svg" xmlns:xlink="http://www.w3.org/1999/xlink" x="0px" y="0px"
	 viewBox="0 0 60 60" style="enable-background:new 0 0 60 60;" xml:space="preserve">
<style type="text/css">
	.st0{fill:currentColor;}
</style>
<g>
	<path class="st0" d="M35.7,43.7c0.1-0.4,0.2-0.8,0.3-1.2c0.2-0.8,0.4-1.6,0.6-2.3c0.3-1.2,0.6-2.3,0.9-3.5c0.2-1,0.5-2.1,0.7-3.1
		c0.2-0.6,0.3-1.3,0.5-1.9c0-0.1,0.2-0.2,0.3-0.3c1.2-0.4,1.6-1.9,0.7-2.7c-0.2-0.2-0.2-0.3-0.1-0.6c0.3-1.1,0.5-2.2,0.8-3.3
		c0.2-0.8,0.4-1.6,0.6-2.4c0.2-0.9,0.4-1.8,0.7-2.7c0.1-0.2,0.2-0.4,0.4-0.5c1.4-0.4,2.7-0.6,4.2-0.3c0.5,0.1,0.9,0.2,1.4,0.3
		c0.4,0.1,0.6,0.4,0.7,0.7c0.3,1.2,0.6,2.4,0.9,3.7c0.3,1.3,0.6,2.6,0.9,3.9c0,0.1,0.1,0.2,0.1,0.3c0.1,0.3,0.1,0.6-0.2,1
		c-0.8,0.9-0.3,2.3,0.8,2.6c0.1,0,0.2,0.2,0.3,0.3c0.2,0.7,0.4,1.4,0.5,2.2c0.2,0.8,0.4,1.6,0.6,2.4c0.3,1.1,0.5,2.2,0.8,3.3
		c0.3,1.3,0.6,2.5,0.9,3.8c0.1,0.3,0,0.3-0.3,0.3c-5.9,0-11.7,0-17.6,0C35.9,43.7,35.8,43.7,35.7,43.7z"/>
	<path class="st0" d="M15.1,36.7c-2.1,0-4.2,0-6.4,0c-0.3,0-0.4-0.1-0.4-0.4c0-0.6,0-1.2,0-1.8c0-0.4,0.1-0.7,0.2-1.1
		c0.1-0.6,0.3-1.1,0.4-1.7c0-0.2,0.1-0.3,0.3-0.4c1.1-0.4,1.5-1.8,0.7-2.7c-0.1-0.2-0.2-0.3-0.1-0.5c0.4-1.4,0.6-2.7,1-4.1
		c0.2-0.9,0.4-1.7,0.6-2.5c0.1-0.6,0.3-1.1,0.4-1.7c0.1-0.6,0.5-0.6,0.9-0.7c1.6-0.4,3.2-0.4,4.8,0c0.2,0.1,0.4,0.1,0.7,0.2
		c0.1,0,0.2,0.2,0.2,0.3c0.2,1,0.5,2,0.7,3c0.2,1,0.5,2,0.8,3c0.2,0.8,0.4,1.7,0.6,2.5c0,0.1,0,0.3-0.1,0.4
		c-0.8,0.8-0.6,2.4,0.7,2.8c0.1,0,0.2,0.1,0.2,0.2c0.2,0.8,0.5,1.7,0.6,2.6c0.1,0.6,0,1.1,0,1.7c0,0.8,0,0.8-0.8,0.8
		C19.1,36.7,17.1,36.7,15.1,36.7z"/>
	<path class="st0" d="M39.3,11.5c-0.8,0.4-1.7,0.5-2.5,0.1c-0.5-0.2-0.9-0.6-1.1-1c-0.5-0.9-0.4-1.4-0.1-1.7
		c0.2,0.7,0.6,1.3,1.3,1.5C37.8,10.6,39,10,39,9c0-0.5,0-1-0.1-1.5c-0.2-1-0.3-2,0.4-2.9c0.4-0.6,0.9-0.9,1.5-1.1
		C41.5,3.2,42.2,3,43,3c1.3,0.1,2.4,0.8,2.8,2.1c0,0,0,0.1,0,0.1c0.2,0.9,0.1,1-0.8,1c-0.5,0-0.9,0-1.4,0.1
		c-0.7,0.1-1.5,0.9-1.9,1.7c2.5-1.3,4.8-1.2,6.9,0.8c1.1,1,1.6,2.3,1.7,3.8c0.1,3.1-2.2,5.5-5.1,5.8c-0.9,0.1-1.7-0.1-2.6-0.4
		c-0.8-0.3-1.5-0.8-2.1-1.5c-0.6-0.7-1-1.4-1.2-2.3C39.2,13.2,39.1,12.3,39.3,11.5z"/>
	<path class="st0" d="M9.5,12.7c0-3.1,2.4-5.4,5.2-5.6c3.5-0.2,6,2.5,6,5.5c0,3.2-2.5,5.5-5.4,5.6C12,18.4,9.5,15.8,9.5,12.7z"/>
	<path class="st0" d="M9.5,46.3c0-2.6,0-5.3,0-7.9c0-0.4,0-0.4,0.4-0.4c1.4,0,2.8,0,4.1,0c0.3,0,0.4,0.1,0.4,0.4
		c0,5.2,0,10.4,0,15.6c0,2-1.9,3.1-3.6,2.3c-0.9-0.4-1.4-1.2-1.4-2.2C9.5,51.5,9.5,48.9,9.5,46.3L9.5,46.3z"/>
	<path class="st0" d="M15.7,46.2c0-2.6,0-5.2,0-7.8c0-0.4,0.1-0.5,0.4-0.4c1.3,0,2.7,0,4,0c0.3,0,0.5,0.1,0.5,0.4
		c0,5.2,0,10.5,0,15.7c0,1.2-0.9,2.1-1.8,2.3c-1.2,0.3-2.4-0.2-2.9-1.3c-0.2-0.4-0.3-0.8-0.3-1.2C15.7,51.4,15.7,48.8,15.7,46.2
		L15.7,46.2z"/>
	<path class="st0" d="M23,34.1c-0.2-0.8-0.3-1.5-0.6-2.3c-0.1-0.4,0-0.6,0.2-0.8c0.9-0.9,0.4-2.4-0.7-2.7c-0.3-0.1-0.4-0.2-0.5-0.5
		c-0.3-1.2-0.6-2.3-0.8-3.5c-0.3-1.1-0.5-2.2-0.8-3.3c-0.1-0.4-0.2-0.8-0.3-1.2c0.1,0,0.2,0,0.3,0c1.1,0,2.2,0,3.2,0
		c0.7,0,1.6,0.7,1.6,1.5c0,0.5,0,1.1,0,1.6c0,0.4,0.2,0.7,0.4,1c0.9,0.9,1.7,1.7,2.6,2.6c0.7,0.7,0.6,1.9-0.1,2.5
		c-0.4,0.3-0.8,0.4-1.2,0.6c-0.4,0.2-0.9,0.3-1.3,0.4c-0.2,0.1-0.3,0.2-0.3,0.5c0,0.7,0,1.4,0,2C24.8,33.4,23.9,34.2,23,34.1z"/>
	<path class="st0" d="M49.3,19.8c0.2,0,0.3,0,0.4,0c1,0,2,0,3.1,0c0.8,0,1.7,0.7,1.7,1.7c0,0.5,0,1.1,0,1.6c0,0.2,0.1,0.4,0.2,0.5
		c0.9,0.9,1.8,1.9,2.7,2.8c1,1,0.7,2.5-0.6,3c-0.6,0.2-1.2,0.4-1.8,0.6c-0.5,0.2-0.5,0.2-0.5,0.7c0,0.7,0,1.4-0.1,2.1
		c-0.1,0.6-0.8,1.2-1.4,1.2c-0.2,0-0.3,0-0.3-0.2c-0.2-0.8-0.4-1.5-0.5-2.3c-0.1-0.2,0-0.4,0.2-0.6c1.1-1.1,0.3-2.6-0.7-2.8
		c-0.3,0-0.4-0.3-0.4-0.5c-0.3-1.4-0.6-2.7-1-4c-0.3-1.2-0.6-2.3-0.9-3.5C49.3,20.1,49.3,20,49.3,19.8z"/>
	<path class="st0" d="M10.6,19.8c-0.2,0.6-0.3,1.2-0.4,1.8c-0.3,1.2-0.6,2.4-0.9,3.6c-0.2,0.9-0.4,1.7-0.6,2.6
		c0,0.2-0.2,0.3-0.4,0.4c-0.9,0.3-1.2,0.8-1.2,1.7c0,0.4,0.2,0.8,0.5,1.1c0.2,0.2,0.2,0.3,0.2,0.5c-0.2,0.7-0.4,1.5-0.5,2.2
		c-0.1,0.3-0.2,0.3-0.4,0.2c-0.6-0.3-1-0.8-1-1.5c0-0.6,0-1.2,0-1.7c0-0.3-0.1-0.4-0.4-0.5C4.6,30,3.8,29.7,3,29.4
		c-1.2-0.4-1.5-1.9-0.6-2.8c1.1-1.1,2.1-2.2,3.2-3.3c0.2-0.2,0.3-0.4,0.3-0.6c0-0.4,0-0.9,0-1.3c0-0.8,0.8-1.6,1.6-1.6
		C8.5,19.8,9.5,19.8,10.6,19.8z"/>
	<path class="st0" d="M40.3,19.8c-0.1,0.5-0.2,0.9-0.3,1.4c-0.2,0.9-0.4,1.8-0.7,2.8c-0.3,1-0.5,2.1-0.8,3.1c0,0.1,0,0.2,0,0.3
		c-0.1,0.4-0.2,0.8-0.8,1c-1,0.4-1.3,1.8-0.5,2.6c0.3,0.3,0.3,0.5,0.2,0.8c-0.2,0.8-0.4,1.5-0.6,2.3c-0.6,0-1.1-0.5-1.2-1.1
		c-0.1-0.5-0.1-1.1-0.1-1.7c0-0.8,0-0.8-0.8-1.1c-0.7-0.2-1.4-0.5-2-0.7c-1.2-0.4-1.5-1.9-0.6-2.8c1-1.1,2.1-2.2,3.2-3.2
		c0.2-0.2,0.3-0.4,0.3-0.7c0-0.5,0-1.1,0.1-1.6c0.1-0.8,0.9-1.3,1.6-1.3C38.2,19.9,39.2,19.8,40.3,19.8z"/>
	<path class="st0" d="M50.3,49.7c0,1.5,0.1,3.1,0,4.6c-0.1,1.5-1.6,2.5-3,2.1c-1.1-0.3-1.9-1.3-1.9-2.5c0-2.9,0-5.7,0-8.6
		c0-0.3,0.1-0.4,0.4-0.4c1.4,0,2.8,0,4.1,0c0.3,0,0.4,0.1,0.4,0.4C50.4,46.8,50.4,48.3,50.3,49.7C50.4,49.7,50.3,49.7,50.3,49.7z"/>
	<path class="st0" d="M44.2,49.7c0,1.4,0,2.9,0,4.3c0,1.1-0.5,1.9-1.5,2.3c-1.4,0.6-3.1-0.3-3.4-1.8c0-0.3-0.1-0.6-0.1-1
		c0-2.8,0-5.5,0-8.3c0-0.3,0.1-0.4,0.4-0.4c1.4,0,2.8,0,4.2,0c0.3,0,0.5,0.1,0.5,0.4C44.2,46.8,44.2,48.3,44.2,49.7
		C44.2,49.7,44.2,49.7,44.2,49.7z"/>
</g>
</svg>
