<?xml version="1.0" encoding="utf-8"?>
<!-- Generator: Adobe Illustrator 24.1.2, SVG Export Plug-In . SVG Version: 6.00 Build 0)  -->
<svg version="1.1" id="Слой_1" xmlns="http://www.w3.org/2000/svg" xmlns:xlink="http://www.w3.org/1999/xlink" x="0px" y="0px"
	 viewBox="0 0 1600 1200" style="enable-background:new 0 0 1600 1200;" xml:space="preserve">
<style type="text/css">
	.st0{fill:#FFFFFF;}
</style>
<g>
	<path class="st0" d="M525,518.4c0-7,0-14,0-21c0.5-2.7,1.1-5.5,1.5-8.2c4.7-27.9,18-51.5,37.3-71.7c27.5-29,61.3-48,98.6-61.1
		c26-9.2,52.9-14.8,80.4-17.6c41.2-4.1,82-2,122.3,7.4c40.6,9.4,78.4,25.1,111.5,50.8c20.6,16,37.8,34.9,49.1,58.5
		c11.9,24.9,15.4,50.9,9.3,78c-5.9,26.5-19.6,48.7-38.4,67.9c-20.2,20.7-44.1,36.1-70.5,47.6c-5.5,2.4-7.9,5-7.9,11.6
		c0.1,29.6-29.5,42.6-49.7,31.6c-0.4-0.2-0.9-0.1-1.6-0.2c-0.4,1.5-0.8,2.9-1.2,4.4c-3.8,13-12.3,21.4-25.4,24.3
		c-13.1,2.9-24.3-1.1-33.3-11.2c-6-6.7-7.7-14.9-8.5-23.5c-0.8-8.9-7.6-15.1-16.2-15.3c-8.7-0.3-15.7,5.4-17.3,14.2
		c-0.3,1.8-0.5,3.6-0.7,5.5c-1.6,17.4-14.7,30.4-32.7,31.2c-17.3,0.9-31.2-11.3-34.4-26.9c-0.2-0.9-0.6-1.7-1-2.8
		c-1.4,0.6-2.5,1.1-3.5,1.5c-19.4,8-41.1-2.5-46.3-22.7c-1.4-5.6-1.3-11.6-1.9-17.7c-3.4-1.5-7.2-3.2-11-5
		c-28.7-13.5-54.6-30.9-75.4-55.2c-14.7-17.3-25.5-36.7-30.4-59C526.9,528.5,526,523.5,525,518.4z M700.3,567.7
		c24.8-1.2,45.6-14.3,58.4-40c3.8-7.7,3.9-14.9-0.2-22.7c-11.4-22.2-29.1-35.5-53.9-39.1c-31.7-4.5-64.6,16.9-73.3,47.8
		c-0.5,1.6-0.5,3.6,0,5.3C640,548.2,666.4,567.8,700.3,567.7z M875.6,482.4c-21.9,0.2-41.2,14.1-48.1,35c-0.6,1.7-0.6,4-0.1,5.7
		c6.7,21.1,26.3,35.3,48.3,35.3c21.8,0,41.3-13.9,48.2-34.7c0.6-1.9,0.7-4.3,0.1-6.2C917.5,496.6,897.5,482.2,875.6,482.4z
		 M759.9,557.2c-17.3,17.9-38.2,27.5-63.3,27.6c-24.8,0.1-45.6-9.5-63.7-27.9c7.6,24,32.8,44.6,62.6,45
		C723.9,602.3,750.7,584.1,759.9,557.2z M833.9,561.9c11.5,16.8,27.6,24.5,47.8,22.5c15.4-1.6,27.5-9.4,36-22.4
		c-12.6,8.5-26.4,13.4-41.6,13.4C860.6,575.5,846.7,570.6,833.9,561.9z"/>
	<path class="st0" d="M782,832.6c-24.9,0-49.8-0.1-74.6,0c-21.1,0.1-38.3-8-50.9-25.1c-7.1-9.7-10.8-20.7-11.1-32.7
		c-0.2-6.5-0.3-13,0-19.5c1.1-24.1,24.4-40,46.4-31.2c13.7,5.5,20.4,16.5,21.8,31c0.9,9.6,5.7,15.5,13.9,17.3
		c9.8,2.1,19-4.5,20.1-14.5c0.7-6.7,1.3-13.3,5-19.2c7.6-12.2,18.7-18.1,32.9-16.7c14.1,1.4,23.7,9.6,28.3,22.8
		c1.8,5.1,1.9,10.8,2.7,16.2c1.1,7.2,5.2,11.9,12,13.9c9.7,2.9,19.6-3.7,21.3-14.2c0.8-4.8,0.9-9.7,2.2-14.3
		c4.2-14.9,17.8-25,32.7-24.7c15.9,0.4,29.7,10.4,32.6,25.9c1.8,9.9,1.6,20.3,0.8,30.4c-2.3,27.6-22.2,48.8-49.4,53.6
		c-4.4,0.8-9,0.8-13.5,0.9C830.7,832.6,806.4,832.6,782,832.6z"/>
</g>
</svg>
