<?xml version="1.0" encoding="utf-8"?>
<!-- Generator: Adobe Illustrator 24.1.2, SVG Export Plug-In . SVG Version: 6.00 Build 0)  -->
<svg version="1.1" id="Слой_1" xmlns="http://www.w3.org/2000/svg" xmlns:xlink="http://www.w3.org/1999/xlink" x="0px" y="0px"
	 viewBox="0 0 60 60" style="enable-background:new 0 0 60 60;" xml:space="preserve">
<style type="text/css">
	.st0{fill:currentColor;}
</style>
<g>
	<path class="st0" d="M58,26.7c-0.4,1.3-0.7,2.7-1.2,4c-1.2,3.2-2.8,6.1-4.8,8.8c-2.1,3-5.2,4.2-8.8,4.4c-2.1,0.1-3.8-0.8-5.4-1.8
		c-1.6-1-3-2.3-4.5-3.4c-0.9-0.7-1.9-1.3-2.9-2c-0.6-0.4-1.3-0.4-1.9,0c-1.5,0.8-2.7,1.8-3.9,2.9c-1.9,1.7-4,3-6.4,3.9
		c-1.4,0.6-2.9,0.4-4.3,0.1c-3.4-0.5-5.9-2.4-7.7-5.3c-2.2-3.5-4.1-7-5-11.1c-0.4-1.7-0.1-2.6,1.4-3.5c3.1-1.8,6.4-3.1,10-3.7
		c2.8-0.4,5.5-0.2,8.2,0.5c2.3,0.5,4.7,1.1,7,1.7c1.1,0.3,2.2,0.3,3.3,0c2.6-0.6,5.2-1.3,7.8-1.8c5.5-1.2,10.7-0.1,15.6,2.4
		c0.6,0.3,1.1,0.6,1.7,0.9c0.8,0.4,1.5,1,1.7,1.9C58,26,58,26.4,58,26.7z M9.8,29.1c2.8,5.6,7.6,7.2,13.1,4.4
		C20,27.7,15.1,26.5,9.8,29.1z M49.2,29.1c-5.3-2.6-10.2-1.4-13.1,4.4C41.6,36.3,46.4,34.7,49.2,29.1z"/>
</g>
</svg>
