<?xml version="1.0" encoding="utf-8"?>
<!-- Generator: Adobe Illustrator 24.1.2, SVG Export Plug-In . SVG Version: 6.00 Build 0)  -->
<svg version="1.1" id="Слой_1" xmlns="http://www.w3.org/2000/svg" xmlns:xlink="http://www.w3.org/1999/xlink" x="0px" y="0px"
	 viewBox="0 0 1600 1200" style="enable-background:new 0 0 1600 1200;" xml:space="preserve">
<style type="text/css">
	.st0{fill:#FFFFFF;}
</style>
<g>
	<path class="st0" d="M787.1,994.7c-230-1.2-412.9-189-408-417.8c4.8-224.3,188.8-401.3,411.2-399.9
		c227.4,1.4,409.1,187.6,406.2,413.9C1193.7,815,1011.5,994.6,787.1,994.7z M790.9,906.6c10.3-0.6,20.6-0.9,30.9-2
		c38.9-4.2,75.2-16.8,109.9-34.4c40.4-20.4,74.4-48.9,102.9-84.1c43.6-53.8,68.9-114.9,73.1-184.3c1.9-30.3-2.4-60-9.6-89.5
		c-13.4-54.9-39.6-102.8-78-144.1c-29-31.2-62.8-56-101.5-73.9c-31.7-14.7-64.8-24.3-99.7-26.4c-16.2-1-32.6-0.1-48.9-0.1
		c-26.9,0-53,4.6-78.4,12.9c-58.4,19.1-106.3,53.7-145.5,100.5c-30.4,36.3-52.6,77.2-66.1,122.6c-11.2,37.6-15.4,75.9-11.6,115
		c3.9,39.5,17.3,76.1,35,111.2c15.8,31.5,37.2,59,62.9,83.3c38.3,36.1,82.4,62.3,132.5,78.2C728.6,901.1,759.4,906.2,790.9,906.6z"
		/>
</g>
<g>
	<path class="st0" d="M421,609.4c0-18,0-35.9,0-53.9c1.2-8.2,2.5-16.4,3.7-24.6c19.9-145.5,128.7-267.2,270.9-302.3
		c21-5.2,42.6-7.8,64-11.6c18,0,35.9,0,53.9,0c7.9,1.2,15.7,2.5,23.6,3.6c148.8,20.2,272.6,133.2,305.3,279.3
		c4.1,18.4,6.5,37.1,9.6,55.7c0,18,0,35.9,0,53.9c-1.9,12.3-3.6,24.6-5.7,36.9c-23.5,141.7-136.1,260.8-276.4,292
		c-18.6,4.1-37.7,6.5-56.5,9.7c-18,0-35.9,0-53.9,0c-7.9-1.2-15.7-2.4-23.6-3.5c-147.8-20.7-267.3-127.4-303.6-271.9
		C427.2,651.9,424.7,630.5,421,609.4z M434.9,590.9c2.8,198.2,173,344.5,341.3,342.4c0-4.1,0-8.2,0-12.3c0-80.4,0-160.8,0-241.3
		c0-9.4-2.4-19.5,7-26.5c0.8-0.6,1.1-2.3,1.1-3.5c0.1-21.1,0-42.1,0-63c-1.8-0.7-2.6-1.3-3.5-1.3c-20.5-0.1-41-0.2-61.5-0.2
		c-1.8,0-3.6,0.9-5.5,1.4c-5.4,1.4-10.7,4.1-16.1,4.1c-83.3,0.3-166.6,0.2-249.9,0.2C443.8,590.9,439.7,590.9,434.9,590.9z
		 M797.9,933.8c191-2.3,341.7-170.1,339.5-342.4c-2.1-0.2-4.3-0.5-6.5-0.5c-46.8,0-93.6,1.1-140.4-0.4c-46.3-1.5-92.7,5.6-139-4.8
		c-17.4-3.9-36.4-0.5-54.7-0.7c-5.8-0.1-7.9,1.8-7.8,7.7c0.3,17.9,0,35.9,0.3,53.8c0,2.9,2.1,5.7,3.1,8.6c1.9,5.1,5.3,10.3,5.3,15.4
		c0.3,84,0.2,167.9,0.2,251.9C797.9,926.3,797.9,930,797.9,933.8z M784.3,580.4c0-22.5,0.1-43.8-0.1-65.2c0-1.6-1.9-3.2-2.6-4.9
		c-1.9-5.1-5.1-10.3-5.2-15.4c-0.3-84-0.2-167.9-0.2-251.9c0-4,0-8,0-12c-195.6,4.1-342,172.2-340.5,340.5c3.8,0,7.6,0,11.4,0
		c81.7,0,163.4,0,245.1,0c9,0,18-1,24.6,7.2c0.8,1.1,2.8,1.7,4.3,1.7C741.8,580.4,762.5,580.4,784.3,580.4z M1138.1,571.5
		C1133,370.6,958.4,229,797.9,232c0,3.8,0,7.6,0,11.5c0,84,0,168-0.1,251.9c0,3.4,0.4,8.4-1.5,10c-9.4,7.6-7.1,17.8-7.2,27.4
		c-0.1,15.6,0,31.2,0,47.6c21.9,0,42.4,0.1,62.8-0.2c2.5,0,4.9-2.5,7.5-3.5c5.2-1.9,10.4-5,15.6-5.1c83.7-0.3,167.3-0.2,251-0.2
		C1129.8,571.5,1133.6,571.5,1138.1,571.5z"/>
</g>
</svg>
