<?xml version="1.0" encoding="utf-8"?>
<!-- Generator: Adobe Illustrator 24.1.2, SVG Export Plug-In . SVG Version: 6.00 Build 0)  -->
<svg version="1.1" id="Слой_1" xmlns="http://www.w3.org/2000/svg" xmlns:xlink="http://www.w3.org/1999/xlink" x="0px" y="0px"
	 viewBox="0 0 1600 1200" style="enable-background:new 0 0 1600 1200;" xml:space="preserve">
<style type="text/css">
	.st0{fill:#FFFFFF;}
</style>
<g>
	<path class="st0" d="M698.2,565.8c0.4,3.7,0.5,7.5,1.2,11.2c1.4,6.9,3.3,13.8,4.7,20.7c0.6,3.1,0.8,6.3,0.7,9.4
		c-0.2,4.7-2.1,8.5-6.9,10.5c-5.2,2.1-10.1,1.7-13.7-2.5c-3.2-3.7-5.8-8.1-7.7-12.6c-3.6-8.7-6.4-17.8-9.9-26.5
		c-1.7-4.2-3.5-8.9-9.1-10.2c-4.2,2.5-5,6.7-4.4,10.9c1,6.7,2.4,13.4,4,20c2.4,10.3,4.6,20.5,2.3,31.1c-1.2,5.3-3,10.3-8.9,11.8
		c-5.9,1.5-10.4-1.6-13.6-6c-4-5.5-7.8-11.2-10.7-17.4c-9.1-19.5-14.5-40-15.5-61.5c-1.2-26.9,9.3-49.9,26.7-69.5
		c11.1-12.5,23.4-24.1,36.4-34.7c11.6-9.5,20-20.8,25-34.6c5.1-14,9.3-28.4,14-42.6c4.2-12.7,8.5-25.4,16.7-36.3
		c8.6-11.5,20-17.5,34.2-18.2c31-1.7,50.9,10.5,61.1,40c5.8,16.8,9.6,34.4,12.6,51.9c4,23.8,13.9,43.2,34.5,56.7
		c3.3,2.2,6.3,4.7,9.5,7.1c14.9,11.3,29.2,23.3,40.6,38.3c17,22.3,24.3,47.5,21.8,75.3c-0.9,9.9-3,19.7-5.3,29.3
		c-1.1,4.8-3.2,9.9-9.5,10.1c-6.3,0.2-9.3-4.5-11.3-9.5c-2.8-6.8-4.9-13.9-7.6-20.7c-1.7-4.1-3.4-8.4-6.3-11.6
		c-1.9-2.2-6.3-4.2-8.7-3.4c-2.3,0.7-4.4,4.8-5,7.8c-0.9,4,0.2,8.4-0.4,12.5c-0.5,4.1-1.3,8.4-3.3,11.9c-4.1,7.3-13.8,7.8-18.2,0.7
		c-2.8-4.5-4.3-10-5.8-15.3c-1.4-4.8-1.8-9.8-3.2-14.6c-1.8-6.2-5.7-10.7-12.4-12c-7-1.3-12.6,1.5-16.5,7c-3,4.2-5.5,9-7.1,13.9
		c-7.5,23.5-4.5,46.7,2.8,69.6c7.1,22.2,20.1,40.8,35.2,58.2c9.1,10.5,18.4,20.9,27,31.9c11.3,14.4,16.8,30.8,13.9,49.3
		c-0.4,2.3-0.6,4.7-1.5,6.9c-0.7,1.7-2.2,4-3.6,4.3c-1.5,0.3-4.1-1.2-5-2.6c-11.9-19.2-30.2-31-48.5-43
		c-14.7-9.7-29.5-19.2-43.3-30.1c-22.4-17.5-38.1-40.7-49.6-66.3c-11.6-25.8-21.3-52.5-32-78.7c-3.2-7.7-6.9-15.3-10.7-22.7
		C706.3,567.8,704.1,564.6,698.2,565.8z M755.2,428.3c0.8,8.7,3.6,12.6,6.8,17.7c5,7.8,12.4,7.5,18.1,0.3c7.2-8.9,7.1-27.4-0.2-36.2
		c-5.3-6.5-14.6-6.4-18.9,0.8C758,416,755,421,755.2,428.3z M735,384C735,384,735.2,383.8,735,384c0,2,0.3,3.8,0.8,5.5
		c2.6,8.4,9.3,10.1,15.3,3.6c5.7-6.2,7.7-13.6,5.6-21.7c-2.2-8.3-9.7-10.3-15.1-3.6C738.1,372.3,735,378,735,384z M807.1,385.3
		c0.9-8.3-3.6-15.5-7.8-18.9c-5.4-4.4-11.2-2.8-13.7,3.7c-2.8,7.4,0.4,19.2,6.6,24.3c5.3,4.3,10.5,3.2,13.2-3
		C806.6,389.1,806.9,386.4,807.1,385.3z"/>
</g>
</svg>
