<?xml version="1.0" encoding="utf-8"?>
<!-- Generator: Adobe Illustrator 24.1.2, SVG Export Plug-In . SVG Version: 6.00 Build 0)  -->
<svg version="1.1" id="Слой_1" xmlns="http://www.w3.org/2000/svg" xmlns:xlink="http://www.w3.org/1999/xlink" x="0px" y="0px"
	 viewBox="0 0 60 60" style="enable-background:new 0 0 60 60;" xml:space="preserve">
<style type="text/css">
	.st0{fill:currentColor;}
</style>
<g>
	<path class="st0" d="M35,35.4c-3.4,0-6.8,0-10.2,0c0-0.9,0-1.7,0-2.6c0-0.3-0.1-0.6-0.4-0.7c-2.3-1.2-4.2-2.9-5.6-5.2
		c-0.7,0.6-1.4,1.1-2.2,1.7c-0.6-0.8-1.2-1.6-1.8-2.4C13.6,26,12.2,26,11,25.5c-3.1-1-4.9-3.5-6.1-6.4c-1.3-3-1.9-6.3-2.3-9.5
		c0-0.2,0-0.4-0.1-0.6C2,7.8,2.6,6.9,3.5,6.2C3.7,6,4.1,5.9,4.4,5.9c3.3,0,6.7,0,10.1,0c0-1,0-1.9,0-2.9c10.4,0,20.6,0,31,0
		c0,1,0,1.9,0,2.9c0.4,0,0.6,0,0.9,0c3,0,6,0,9.1,0c0.9,0,2.1,1.2,2,2.1c-0.4,3.6-0.9,7.1-2.2,10.5c-1,2.6-2.4,4.9-4.8,6.4
		c-1.7,1-3.5,1.3-5.2,1.3c-0.7,0.9-1.3,1.7-1.9,2.5c-0.7-0.5-1.4-1.1-1.9-1.5c-1.1,1.1-2,2.2-3.1,3.2c-0.8,0.7-1.7,1.2-2.6,1.7
		c-0.4,0.2-0.5,0.5-0.5,0.9C35,33.7,35,34.5,35,35.4z M16.8,23c-1.3-3.5-1.9-7.1-2.1-10.8c0-0.2-0.2-0.4-0.4-0.5
		c-0.7-0.3-1.3-0.6-2-0.9c0.2-0.4,0.3-0.7,0.4-1.1C13,9,12.8,8.8,12,8.8c-1.6,0-3.2,0-4.8,0c-0.6,0-1.2,0-1.9,0
		c0.4,3.5,1,6.9,2.6,10.1C9.8,22.5,12.8,23.9,16.8,23z M43.4,23c2.9,0.8,5.8-0.2,7.6-2.8c1.7-2.3,2.4-4.9,2.9-7.7
		c0.2-1.2,0.4-2.5,0.6-3.8c-2.5,0-4.7,0-7,0c-0.5,0-0.6,0.3-0.4,0.7c0.2,0.4,0.3,0.8,0.5,1.2c-0.6,0.3-1.1,0.5-1.6,0.7
		c-0.5,0.2-0.7,0.5-0.7,1c0,0.9-0.1,1.7-0.3,2.6C44.5,17.7,43.9,20.3,43.4,23z M18.9,6c0.1,5.8,0.4,11.4,2.5,16.8
		c0.9,2.3,2.3,4.3,4.5,5.6c0.9,0.5,1,0.5,1.6-0.4c-2.1-2.2-3.1-4.9-3.8-7.8c-1-4.3-1.2-8.6-1.3-13c0-0.4,0-0.7,0-1.2
		C21.3,6,20.2,6,18.9,6z"/>
	<path class="st0" d="M26.5,37.2c1.5,0,3,0,4.5,0c0.7,0,1.7-0.2,2.1,0.1c0.4,0.4,0.4,1.4,0.5,2.1c0.8,3.8,2.2,7.2,5.2,9.9
		c1.2,1.1,2.4,1.8,4,1.5c0.3-0.1,0.7,0,1,0c0,1.8,0,3.5,0,5.3c-9.4,0-18.7,0-28.1,0c0-1.8,0-3.5,0-5.3c0.7,0,1.4,0.1,2.1,0
		c0.6-0.1,1.2-0.2,1.6-0.5c3-2.1,4.8-5,5.9-8.5C25.9,40.4,26.2,38.8,26.5,37.2z"/>
</g>
</svg>
