<?xml version="1.0" encoding="utf-8"?>
<!-- Generator: Adobe Illustrator 24.1.2, SVG Export Plug-In . SVG Version: 6.00 Build 0)  -->
<svg version="1.1" id="Слой_1" xmlns="http://www.w3.org/2000/svg" xmlns:xlink="http://www.w3.org/1999/xlink" x="0px" y="0px"
	 viewBox="0 0 1600 1200" style="enable-background:new 0 0 1600 1200;" xml:space="preserve">
<style type="text/css">
	.st0{fill:#FFFFFF;}
</style>
<g>
	<path class="st0" d="M875.4,442.6c-9.8-6.5-20.3-11.8-31.5-15.8c-93-33.2-191.6,22.2-211.5,118.9c-18,87.3,42.6,174.8,130.7,188.3
		c52.8,8,99-6.4,137.5-43.6c15.4-14.9,39.8-9.2,45.4,10.3c2.9,10.1,0.6,19.1-7,26.6c-30,29.8-65.7,49.2-107.1,57.5
		C719,807.6,609.4,739.2,582.7,627.3c-18.8-79.2,2.1-148.7,60.7-205.3c43.5-42,96.9-60.5,157.2-57.7c40.2,1.9,76.9,14.8,110,37.8
		c1.2,0.8,2.3,2.6,3.8,2c1.8-0.8,0.8-3,0.9-4.5c0.2-4-0.1-8,0.4-12c1.5-14,12.9-23.8,27-23.6c13.5,0.2,25.1,10.6,25.6,24.4
		c0.6,20.8,0.3,41.6,0.3,62.5c0,6.3,0.1,12.7,0,19c-0.4,15.8-11.6,26.9-27.4,27c-26,0.1-52,0.1-78,0c-15.7-0.1-27.3-11.3-27.4-26.4
		c-0.1-15.2,11.2-26.4,27-26.7c4.1-0.1,8.2,0,12.3,0C875.1,443.4,875.3,443,875.4,442.6z"/>
</g>
</svg>
