<?xml version="1.0" encoding="utf-8"?>
<!-- Generator: Adobe Illustrator 24.1.2, SVG Export Plug-In . SVG Version: 6.00 Build 0)  -->
<svg version="1.1" id="Слой_1" xmlns="http://www.w3.org/2000/svg" xmlns:xlink="http://www.w3.org/1999/xlink" x="0px" y="0px"
	 viewBox="0 0 1600 1200" style="enable-background:new 0 0 1600 1200;" xml:space="preserve">
<style type="text/css">
	.st0{fill:#FFFFFF;}
</style>
<g>
	<path class="st0" d="M800,324.1c138.2,0.6,243.6,113.5,242.5,245c-1.2,132.6-110,240.5-243.3,240.2
		c-131.9-0.3-240.9-107.2-241.8-241.1C556.6,435,664.1,324.4,800,324.1z M801,369.7c-46.7,0.4-87.6,14.9-124,43.1
		c-12.2,9.5-21.8,20.4-26.4,35.4c-3.5,11.2-10.5,20-19.4,27.5c-4.6,3.9-9.2,7.8-13.6,11.9c-4.8,4.5-8.3,9.8-10,16.2
		c-4.6,17.1,6.3,29.3,23.7,26.4c2.9-0.5,5.8-1.6,8.7-2.2c2.3-0.4,4.7-0.8,7-0.7c3.3,0.2,5.1,2.1,4.9,5.5c-0.1,2.3-0.4,4.7-0.7,7
		c-1.6,9.9-3.6,19.8-4.7,29.8c-0.7,6.7-3.4,11.8-8.4,16c-5.3,4.4-10.6,8.8-15.9,13.1c-6,5-8.8,11.4-9.1,19.1
		c-0.4,9.9,2.2,19.1,6.2,28c17.9,40.3,46.3,71.4,84.6,93.1c6.8,3.9,14.3,6.9,21.9,8.8c12.6,3,23.2-2.4,28.3-14.4
		c2.9-6.8,4.5-14.3,6-21.6c1.6-7.8,2.4-9.1,10.3-9.2c19.3-0.2,38.6-0.2,57.9-0.1c9.4,0.1,9.7,1,11.6,10c1.5,7.5,3.3,15.1,6.4,22.1
		c4.8,10.8,15.6,15.9,27.2,13.2c6.6-1.5,13.2-3.9,19.2-7.1c41.5-22.4,71.6-55.5,89.5-99.1c3-7.3,3.8-15.8,4.4-23.8
		c0.6-7.6-2.7-14.2-8.9-19.1c-4.7-3.7-9.2-7.7-13.9-11.4c-6.7-5.2-10.6-11.7-10.4-20.3c0-1.9-0.4-3.8-0.8-5.7
		c-1.5-8.4-3.2-16.9-4.4-25.3c-1-7.5,1.7-9.9,9.2-8.6c2.1,0.3,4.1,1.3,6.2,1.7c4,0.7,8,1.6,12,1.5c9.4-0.3,14.5-4.7,16.8-13.9
		c2-7.7,0.7-15.1-4-21.4c-3.8-5.1-8.2-10.1-13.3-13.9c-13.3-10-22.8-22.5-28.1-38.3c-1.1-3.2-2.4-6.5-4.2-9.3
		c-2.4-3.8-4.9-7.7-8.1-10.7C896.6,388.4,851.9,370.3,801,369.7z"/>
	<path class="st0" d="M658.1,575.9c0.4-3.9,0.7-7.9,1.3-11.9c1.8-10.1,3.5-20.3,5.6-30.3c2.4-11.6,9.1-18.9,20.8-22.9
		c46.8-16.2,94.8-21,143.9-17.3c29.6,2.3,58.5,7.9,86.5,18.1c8.2,3,14,7.9,16.7,16.3c5,15.6,6.8,31.7,8.9,47.9
		c-60.9,14.8-96.4,52.6-107,114.2c-23.1,0-46.6,0-69.9,0C754.6,628.5,719,590.8,658.1,575.9z M766.4,567c0.1,18.5,15,33.5,33.5,33.6
		c18.8,0.1,33.8-15,33.8-33.9c0-18.5-14.9-33.4-33.5-33.4C781.1,533.2,766.3,547.9,766.4,567z"/>
	<path class="st0" d="M800.1,533.2"/>
	<path class="st0" d="M799.8,600.6"/>
</g>
</svg>
