<?xml version="1.0" encoding="utf-8"?>
<!-- Generator: Adobe Illustrator 24.1.2, SVG Export Plug-In . SVG Version: 6.00 Build 0)  -->
<svg version="1.1" id="Слой_1" xmlns="http://www.w3.org/2000/svg" xmlns:xlink="http://www.w3.org/1999/xlink" x="0px" y="0px"
	 viewBox="0 0 1600 1200" style="enable-background:new 0 0 1600 1200;" xml:space="preserve">
<style type="text/css">
	.st0{fill:#FFFFFF;}
</style>
<g>
	<path class="st0" d="M666.4,871c-3.7-2.8-7.8-5.3-11.1-8.6c-11.2-10.9-22.1-22-33.5-33.4c-8,8.1-15.8,15.9-23.5,23.6
		c-9.8,9.8-17.6,9.8-27.4,0c-12.1-12.1-24.2-24.2-36.3-36.3c-9.1-9.1-9.1-17.2,0.1-26.4C596,728.5,657.4,667,719,605.7
		c3.3-3.2,3.6-5.5,1.5-9.5c-34.7-68.3-14.9-152.7,46.3-198.6c54.7-41,128.2-43.5,184.8-5.3c39.6,26.7,62.9,64.3,69.3,111.8
		c9.5,71.1-29.4,139.6-95.7,167.4c-45,18.9-90.1,17.3-134.1-4.4c-4-2-6-1.5-9.1,1.6c-30.9,31.2-62.1,62.2-93.1,93.3
		c-1.2,1.2-2.4,2.2-3.9,3.5c1.3,1.5,2.3,2.7,3.4,3.8c10.5,10.5,20.9,20.9,31.4,31.4c9.4,9.4,9.4,17.5,0.2,26.7
		c-11.6,11.6-23.2,23.4-35,34.8c-3.5,3.4-7.8,5.9-11.7,8.7C671,871,668.7,871,666.4,871z M862.6,445.6
		c-44.1,0.4-79.3,36.1-78.8,79.9c0.5,43.5,36,78.7,79.3,78.4c44-0.3,79.4-36,78.9-79.8C941.4,480.5,905.7,445.2,862.6,445.6z"/>
</g>
</svg>
