<?xml version="1.0" encoding="utf-8"?>
<!-- Generator: Adobe Illustrator 24.1.2, SVG Export Plug-In . SVG Version: 6.00 Build 0)  -->
<svg version="1.1" id="Слой_1" xmlns="http://www.w3.org/2000/svg" xmlns:xlink="http://www.w3.org/1999/xlink" x="0px" y="0px"
	 viewBox="0 0 1600 1200" style="enable-background:new 0 0 1600 1200;" xml:space="preserve">
<style type="text/css">
	.st0{fill:#FFFFFF;}
</style>
<g>
	<path class="st0" d="M721.3,702.3c-15.4,5.9-30.6,12.3-46.2,17.7c-11.9,4.1-24.2,6.8-36.2,10.4c-14.4,4.3-25.6-1.4-36.2-10.4
		c-24.6-20.9-42.2-47.2-57.2-75.3c-19.7-36.8-34.7-75.6-41.5-117c-4.3-26.3-5.5-52.3,10.4-76c9.5-14.1,21.1-26.2,34.7-36.2
		c39.2-28.7,82.8-46,131.7-47.6c12.8-0.4,26.1,1.4,38.4,5.1c25.4,7.5,38.5,26.8,38.6,53.4c0.1,18.2-5.2,35.2-11.4,52
		c-1.7,4.6-2.2,9.8-2.2,14.7c0,2.1,2.2,5.3,4.2,6.1c1.5,0.7,4.8-1,6.4-2.5c5.9-5.5,9.4-12.4,9.2-20.7c-0.2-9.2-1.1-18.5-1.2-27.7
		c-0.1-12.6,6.4-16.9,17.9-11.9c15.2,6.5,25.2,18.6,32.5,32.9c21.3,41.9,22.6,85,7.1,128.9c-6.9,19.5-15.9,37.9-27.9,54.8
		c-2.2,3.1-2.7,5.8-1.3,9.2c3.9,9.9,7.5,19.9,11.6,30.7c-55.4,27.7-110.6,55.3-166.6,83.3c-3.1-11.4-5.7-21.1-8.6-31.7
		C660.8,734.6,692.4,721.5,721.3,702.3z M658.8,405.6c-2.6-0.2-3.3-0.3-4.1-0.3c-30.8,2.8-58.7,13.3-83.2,32.3
		c-20,15.5-34.5,34.8-38.4,60.6c-1.7,11.1-0.3,25.3,3.6,31.8c0.1-1.4,0.2-2.4,0.2-3.4c0-26.1,9.9-48.1,27.7-66.8
		c18.9-19.9,42.3-32.7,67.1-43.4C640,412.8,648.6,409.6,658.8,405.6z"/>
	<path class="st0" d="M841.3,465.9c23.6,41.3,104.6,74,161,63.3c1.8,15,5.3,29.5,14.6,42.4c-2.7-10.4-6.2-20.1-7.6-30.2
		c-3.4-24.6,3-46.3,21.5-63.6c16.2-15.2,36.3-13.6,49.7,4.2c14.6,19.5,15.7,41.2,8.5,63.5c-7.8,23.9-21.7,44.5-36.3,64.5
		c-16.5,22.7-34.1,44.3-56.7,61.3c-3.8,2.9-7.8,6.1-12.3,7.5c-6.8,2.3-9.8,7.1-12.1,13.2c-3.2,8.6-6.6,17.2-10.1,26.3
		c-51.6-14.6-103.1-29-154.4-43.6c-6.6-1.9-10.6-14-6.8-19.6c2.4-3.7,4.9-7.3,7.5-11.3c26.6,11.5,53.7,21.2,82.5,25.3
		c-2.4-0.9-4.8-1.8-7.8-3c5-10.9,10.3-21.4,14.7-32.2c3.4-8.5,5.8-17.5,8.6-26.3c1.4-4.3-0.1-8.2-4-9.3c-2.8-0.8-7.7,0.2-9.3,2.3
		c-3.6,4.7-6.8,10.4-8.1,16.1c-3.2,14.3-5.2,28.9-7.7,43.4c-0.2,1.2-0.4,2.4-0.6,3.6c-6.3,0-8-2.5-6.7-8.7c2.7-13.6,4.3-27.4,7-40.9
		c0.9-4.8,3.3-9.5,5.6-13.9c4.6-8.4,12.4-11.3,21.4-8.4c7.6,2.5,11.9,9.3,9.6,18.7c-2.1,8.7-5.6,17.1-9.1,25.4
		c-4.2,9.9-9.1,19.6-13.6,29.4c0.8,0.4,1.7,0.7,2.5,1.1c7.6-17.6,15.9-35,22.6-53c3.9-10.6-0.3-18.6-9.1-22.7
		c-8.5-4-18.2-1.2-24.4,7.2c-7,9.6-9.7,20.9-11.5,32.3c-1.6,9.9-2.6,19.9-4,31.4c-18.5-8.5-36.3-16.6-54.4-25
		c4.3-9.9,8.6-18.7,12.1-27.8c15.6-40.5,20-81.6,4.3-123c-4.1-10.9-10.6-20.9-15.7-31.5c-1.1-2.3-1.7-5.7-0.8-7.9
		c5-12.8,6.5-25.4,4.8-39.4c-2.4-20,7.8-35.6,23.2-47.7c14.9-11.7,32.6-16.7,51-17.5c63.4-2.5,120.5,15.8,170.6,54.9
		c22.2,17.3,29.9,48.3,19.9,74.8c-3.3-3-6.4-6.2-9.9-8.7c-12.8-9.5-28.2-8.3-41.6,2.8c-13.6,11.3-22,25.9-25.5,43.1
		c-0.9,4.6-3,6.3-6.9,7.5c-17.7,5.5-35.7,5.2-53.6,2.2c-31.3-5.2-60.2-16.5-85.2-36.5C852.2,476.8,846.6,470.8,841.3,465.9z"/>
	<path class="st0" d="M632.8,784.2c16.5-7.6,32.6-14.6,48.4-22.4c35-17.3,69.7-35,104.6-52.4c6-3,12.2-5.5,18.3-8.3
		c4.1-1.9,7.3-1.3,9.5,2.9c13.9,26.8,28,53.5,41.5,80.5c4.1,8.3,2.5,10.6-6.7,14.6c-37.2,16.3-74.6,32.5-111.7,49.1
		c-17.2,7.7-34.2,16-51,24.5c-5,2.5-7.9,2.3-11.4-2.7C655.8,843.9,641.3,815.9,632.8,784.2z M833,778.1c-0.6-2.4-0.9-6.7-2.6-10.5
		c-5.2-11.4-11-22.6-16.4-33.9c-2.8-5.9-7-9.7-13.7-8.9c-7.6,0.9-14.2,4-17.1,11.9c-0.6,1.7-1.1,4-0.5,5.5
		c7.1,15.9,14,31.8,21.8,47.3c3.1,6.2,8.2,7.1,15.2,4.9C829.4,791.1,833,787.3,833,778.1z"/>
	<path class="st0" d="M917.7,826.5c-16.3-5.8-32.7-11.7-49.1-17.5c-7.1-2.5-7.5-5.1-6-12.7c1-5.4,0.1-11.9-2.2-16.9
		c-8.7-19.3-18-38.4-27.7-57.3c-5.7-11.1-11.5-22.3-21.9-30.4c-3.2-2.5-3.9-8.1-6.3-13.7c4.2,1,6.9,1.5,9.6,2.4
		c46.3,14.7,92.7,29.4,139,44.1c10.3,3.3,10.8,3.3,8,14.1c-6.8,26.4-13.5,52.8-21.5,78.8c-4.6,14.9-4.2,12.3-17.8,9.6
		c-1.4-0.3-2.9-0.5-4.3-0.8C917.5,826.3,917.7,826.5,917.7,826.5z"/>
	<path class="st0" d="M851.9,798.7c9,15.5,8.7,23.5-4.8,34.3c-14,11.2-29,21.4-44.5,30.4c-25.2,14.7-51.7,26.7-80,34.6
		c-19.6,5.4-24.9,3-34.6-14.5C742.7,855.2,797.3,826.9,851.9,798.7z"/>
	<path class="st0" d="M917.5,826.3c3,1.3,6,2.5,9,3.8c-1.6,14.1-8.8,21.4-22.5,22.1c-19.7,1-38.5-3.7-57.9-7.9
		c17.8-18.7,17.8-18.7,19.4-30.8c12.8,3.3,25.4,6.6,38.1,9.8c4.6,1.2,9.3,2.1,14,3.2C917.7,826.5,917.5,826.3,917.5,826.3z"/>
	<path class="st0" d="M825.4,776.1c2.8,6.4-1.8,9.1-6.9,11c-4.9,1.9-8.4,0.6-10.6-4.4c-5.4-12.2-11.1-24.4-16.4-36.6
		c-3.4-7.8,0.9-13.9,10.7-14c0.8,0.5,3.2,1.2,3.9,2.7"/>
</g>
</svg>
