<?xml version="1.0" encoding="utf-8"?>
<!-- Generator: Adobe Illustrator 24.1.2, SVG Export Plug-In . SVG Version: 6.00 Build 0)  -->
<svg version="1.1" id="Слой_1" xmlns="http://www.w3.org/2000/svg" xmlns:xlink="http://www.w3.org/1999/xlink" x="0px" y="0px"
	 viewBox="0 0 1600 1200" style="enable-background:new 0 0 1600 1200;" xml:space="preserve">
<style type="text/css">
	.st0{fill:#FCFCFC;}
</style>
<g>
	<path class="st0" d="M895.6,434.3c-3.5-17.6-6.7-33.7-9.9-49.7c-1.2-0.2-2.3-0.4-3.5-0.5c-1.9,5.9-4.3,11.7-5.6,17.7
		c-1.2,5.4-0.6,11.3-1.9,16.6c-1.8,7.7-6.9,11.3-14.7,9.6c-20.2-4.6-35.1,3.4-48.3,16.9c-19.2,19.8-38.5,39.4-58,58.9
		c-8,8-13.6,17.1-15.4,28.7c-0.6,3.8-2.5,7.9-5.1,10.6c-48.9,49.3-98.1,98.3-147.2,147.4c-0.7,0.7-1.6,1.2-2.3,1.7
		c-11.8-6.6-26.4-1.9-28.4,11.2c-1.2,8-1.3,18.5,4.7,26c5.9,7.2,13.4,13.2,20.1,19.8c3.3,3.3,6.2,3.2,9.3,0.1c1.9-2,4-3.8,5.9-5.8
		c54.4-54.4,108.8-108.8,163.3-163.2c2.2-2.2,4.3-7.3,8.9-1.6c-45.9,45.9-91.7,91.7-137.9,137.9c4.5,4.5,8.9,8.9,13.9,13.9
		c2.1-2.1,4-4,5.9-5.9c41.8-42.2,83.6-84.4,125.4-126.6c3-3.1,5.5-6.1,11-3.3c2.3,1.2,6,0.1,8.8-0.9c8.6-3.1,17.1-2.5,25.3,2
		c7.1,3.8,13.6,3.6,20.6,0.5c11-4.9,22.3-9.3,33.3-14.3c5.3-2.4,8.8-1.2,12.7,3.3c17.7,20.5,41,24.2,65.1,10.8
		c22.3-12.4,31-34.9,22.9-58.8c-3.3-9.7-1.8-13.6,7.2-17.6c12.3-5.6,25.1-5.5,38.2-1.5c27.6,8.4,48.1,26.2,63.8,50.1
		c8.6,13,8.5,13,18.9,2.6c22.3-22.3,44.6-44.7,67-67c4.2-4.2,6-7.9-0.1-12.4c-39.9-29.3-82.9-51.1-131.8-58.1
		c-35-5-68.3,0.1-99.8,14.2c-2.2,1-6.8,1.3-7.8,0C921.3,435.9,910.5,430,895.6,434.3z M945.1,573.7c1.3-0.5,2.6-0.9,3.9-1.4
		c-1.3-4.8-2.4-9.7-4-14.5c-2.3-6.8-5.7-13.4-7-20.3c-0.7-3.6,1.1-9.5,3.8-11.1c2.6-1.5,8.5,0.1,11.8,2.2
		c11.1,7.1,15.3,19.8,11.7,32.5c-5.7,20.1-30.1,34.3-50.9,29.6c-8.1-1.8-14.9-5.9-19.9-12.8c-5.4-7.4-6.8-20.5-2.6-27
		c5.6-8.6,14.3-8.2,23.2-6.7c10.7,1.9,16.6,9.9,22.4,18.1C940.1,566.2,942.6,570,945.1,573.7z M840.3,518.1
		c-6.4,6.4-12.7,12.7-19.1,19.1c-3.9,3.9-8.3,6.2-13.3,1.4c-5-4.8-2.8-9.3,1.1-13.2c12.9-12.9,25.8-25.8,38.7-38.7
		c4-4,8.6-5.9,13.3-0.9c4.3,4.5,2.7,9-1.1,12.8C853.4,505,846.9,511.5,840.3,518.1z M849.2,526.8
		C849.2,526.8,849.2,526.8,849.2,526.8c6.5-6.6,13.1-13.1,19.6-19.7c4-4,8.3-6.1,13.2-1.2c4.6,4.6,2.7,9-0.9,12.7
		c-13.2,13.3-26.4,26.6-39.8,39.8c-3.5,3.4-7.6,5.3-12,0.7c-4.3-4.4-3.6-8.8,0.3-12.8C836.1,539.9,842.7,533.4,849.2,526.8z
		 M820.3,496.4c-6.7,6.7-13.4,13.4-20.1,20.1c-3.8,3.8-8.1,5.6-12.6,0.9c-4.1-4.3-2.5-8.5,1-12c13.2-13.3,26.5-26.5,39.7-39.7
		c3.6-3.7,7.7-5,12-0.8c4.2,4.1,3.2,8.3-0.5,12C833.3,483.4,826.8,489.9,820.3,496.4z"/>
</g>
</svg>
