<svg xmlns="http://www.w3.org/2000/svg"
	 viewBox="0 0 1600 1200" width="297px" height="297px">
<g>
	<g>
		<g>
			<path fill="#68E8A9" d="M1078.4,927c-173.1,0-346.1,0.1-519.2-0.1c-26.1,0-52.6,0.4-78.3-3.4c-54.7-8-70.2-55.8-45.9-99.6
				c43.8-79,89.6-156.8,134.7-235.1C608,522.1,646.4,455.3,685,388.6c18.5-31.9,36.8-64,56.7-95c10.1-15.7,24.7-27.6,44.2-32.1
				c18.9-4.4,35.3,1,48.7,13.2c10.9,10,21.1,21.8,28.6,34.5c54.8,93.3,109,187,163.1,280.7c44.7,77.6,89.4,155.2,133.2,233.4
				c12.9,23.1,16.8,48.2,1.7,72.5c-12.3,19.8-32.3,26.2-53.8,28.9c-9.6,1.2-19.3,1.1-29,1.5C1078.4,926.6,1078.4,926.8,1078.4,927z"
				/>
		</g>
	</g>
	<g opacity="0.2">
		<g>
			<path fill="#68E8A9" d="M1133.9,1000c-221.4,0-391.9-1-613.3-1.4c-33.4,0-67.3,0.5-100.2-4.1c-70-9.8-97.9-112.3-66.8-165.9
				c56.1-96.6,96.4-160.6,154.1-256.4c49.1-81.7,98.2-163.4,147.7-244.9c23.7-39,36.2-63.5,61.8-101.4c13-19.2,31.6-33.8,56.5-39.3
				c24.2-5.4,65.2,0.1,82.3,15.1c14,12.3,27,26.6,36.6,42.2c70.1,114.1,130.4,215,199.5,329.7c57.3,94.9,95.5,157.7,151.5,253.3
				c16.6,28.2,24.9,91.2,5.6,121c-15.7,24.2-50.4,46-78,49.4c-12.3,1.5-9.2,1.3-21.6,1.8C1149.4,999.4,1133.9,999.7,1133.9,1000z"/>
		</g>
	</g>
	<g opacity="5.000000e-02">
		<g>
			<path fill="#68E8A9" d="M1190.8,1070.9c-275.4,0-460.5-3.6-735.9-4c-41.6-0.1-61.1,3.2-102.1-2.6c-87-12.2-136.2-156.2-85.1-244.1
				c69.8-120.1,99.4-164.5,171-283.6C499.8,435.1,543.9,361.4,605.4,260c29.4-48.6,29.4-48.6,55.7-95.4
				c16.1-23.9,47.5-72.5,83.2-86.2c32.7-12.6,112.8-28.2,167.9,43.6c36.3,56.6,23.4,36.6,35.4,56c87.2,142,131.8,217.9,217.8,360.5
				c71.2,118.1,93.6,153.2,163.3,272.1c20.6,35.1,36.9,141.1-0.6,189.5c-19.5,30.1-56.9,63.4-91.1,67.6c-15.2,1.8-11.5,1.6-26.9,2.3
				C1210.1,1070.2,1190.8,1070.5,1190.8,1070.9z"/>
		</g>
	</g>
	<rect x="725.1" y="500.4" width="144.7" height="285.6" fill="none"/>
	<text transform="matrix(1 0 0 1 725.0533 771.5847)" class="st5 st6" fill="#FFFFFF" font-family="Calibri" font-size="400px">!</text>
</g>
</svg>
