<svg xmlns="http://www.w3.org/2000/svg"  
	 viewBox="0 0 1600 1200" width="297px" height="297px">
<g>
	<circle cx="801.8" cy="604.8" r="357" fill="#68E8A9"/>
	<circle class="st1" cx="800" cy="604.8" r="439.5" fill="#68E8A9" fill-opacity="0.2"/>
	<circle class="st2" cx="795.8" cy="595.8" r="576.1" fill="#68E8A9" fill-opacity="5.000000e-02"/>
</g>
<g class="st3">
	<path class="st4" fill="#FFFFFF" d="M779.5,686.3c6-9,11.9-17.8,17.8-26.7c20.3-30.7,40.5-61.3,60.8-92c12.8-19.4,25.7-38.8,38.5-58.3
		c4.6-7,11.9-10.1,19.4-8.5c7.1,1.5,13.2,7.7,13.3,15.9c0.1,4.7-1.8,10-4.3,14c-16.7,26-33.9,51.6-51,77.3
		c-22.1,33.5-44.3,67-66.4,100.4c-3.6,5.4-7,11-10.6,16.3c-7.1,10.4-20.1,11.9-28.6,2.7c-12.8-13.7-25-27.8-37.5-41.8
		c-18.4-20.5-36.7-40.9-55.1-61.3c-7.1-7.9-6.9-18.5,0.7-25.4c7.1-6.6,18.5-6.2,25.1,1.2c12.6,14.2,25.5,28.2,38.2,42.4
		c12.6,14,25.1,28.1,37.8,42.2C778.1,685.1,778.7,685.6,779.5,686.3z"/>
</g>
</svg>
